<svg width="363" height="166" viewBox="0 0 363 166" fill="none" xmlns="http://www.w3.org/2000/svg">
<mask id="path-1-outside-1_1048_12330" maskUnits="userSpaceOnUse" x="3.5" y="20.5" width="355" height="114" fill="black">
<rect fill="white" x="3.5" y="20.5" width="355" height="114"/>
<path d="M37.5945 85.1C38.9279 85.1 39.9945 84.8333 40.7945 84.3C41.6612 83.7 42.0945 82.9667 42.0945 82.1C42.0945 81.3 41.6612 79.7333 40.7945 77.4C39.9945 75.0667 38.0612 69.9 34.9945 61.9C34.0612 59.4333 33.0279 56.7667 31.8945 53.9L45.6945 47.5L57.3945 80C57.9945 81.8 58.7279 83.1 59.5945 83.9C60.4612 84.7 61.5945 85.1 62.9945 85.1H65.7945C66.4612 85.1 66.7945 87.7 66.7945 92.9C66.7945 96.2333 66.6945 98.3333 66.4945 99.2C66.2945 100.067 66.0612 100.5 65.7945 100.5H61.9945C59.3945 100.5 57.0945 100.133 55.0945 99.4C53.1612 98.6667 51.5612 97.4667 50.2945 95.8C48.9612 97.5333 47.3945 98.7667 45.5945 99.5C43.7945 100.167 41.6612 100.5 39.1945 100.5H15.6945L14.4945 85.1H37.5945ZM91.0773 85.1C92.6773 85.1 93.9107 84.8333 94.7773 84.3C95.644 83.7667 96.0773 83.0333 96.0773 82.1C96.0773 81.2333 95.844 80.4333 95.3773 79.7C94.9773 78.9 94.3107 78.0333 93.3773 77.1L72.5773 56.8V45.2L111.377 30.5L115.277 44.9L91.2773 54L104.477 67.2C107.211 69.9333 109.144 72.6 110.277 75.2C111.411 77.7333 111.977 80.5 111.977 83.5C111.977 88.7667 110.244 92.9333 106.777 96C103.311 99 98.5107 100.5 92.3773 100.5H65.7773C65.1107 100.5 64.7773 97.9667 64.7773 92.9C64.7773 89.7 64.8773 87.6 65.0773 86.6C65.2773 85.6 65.5107 85.1 65.7773 85.1H91.0773ZM173.308 85.1H214.908C215.574 85.1 215.908 87.7 215.908 92.9C215.908 97.9667 215.574 100.5 214.908 100.5H207.408C207.608 100.7 207.741 101 207.808 101.4C207.874 101.8 207.908 102.2 207.908 102.6C207.774 106.867 206.541 110.6 204.208 113.8C201.874 117.067 198.608 119.6 194.408 121.4C190.274 123.2 185.541 124.1 180.208 124.1H172.708C164.041 124.1 157.308 121.567 152.508 116.5C147.708 111.5 145.308 104.533 145.308 95.6V75.1H160.108V95.2C160.108 99.7333 161.108 103.1 163.108 105.3C165.174 107.567 168.441 108.7 172.908 108.7H181.008C185.408 108.7 188.574 108.167 190.508 107.1C192.441 106.1 193.408 104.6 193.408 102.6C193.408 101.467 193.108 100.667 192.508 100.2C191.908 99.6667 190.941 99.4 189.608 99.4H172.108L173.308 85.1ZM218.598 85.1C219.932 85.1 220.998 84.7333 221.798 84C222.598 83.2667 222.998 82.2333 222.998 80.9V36.2H237.798V81.8C237.798 87.6667 236.098 92.2667 232.698 95.6C229.365 98.8667 224.798 100.5 218.998 100.5H214.898C214.232 100.5 213.898 97.9667 213.898 92.9C213.898 87.7 214.232 85.1 214.898 85.1H218.598ZM264.991 80.3C264.991 81.5667 265.191 82.6 265.591 83.4C265.991 84.1333 266.657 84.7 267.591 85.1C268.524 85.5 269.824 85.7 271.491 85.7H276.991V81.1C276.991 78.5 276.457 76.5333 275.391 75.2C274.324 73.8667 272.757 73.2 270.691 73.2C268.891 73.2 267.491 73.8667 266.491 75.2C265.491 76.4667 264.991 78.1667 264.991 80.3ZM298.291 85.1C298.957 85.1 299.291 87.7 299.291 92.9C299.291 97.9667 298.957 100.5 298.291 100.5H290.991C290.257 107.9 287.591 113.667 282.991 117.8C278.391 122 272.424 124.1 265.091 124.1H250.991L249.791 108.9H266.791C269.924 108.9 272.357 108.133 274.091 106.6C275.891 105.133 276.791 103.1 276.791 100.5H271.191C263.857 100.5 258.591 98.9667 255.391 95.9C252.191 92.8333 250.591 87.8667 250.591 81C250.591 76.7333 251.424 72.9333 253.091 69.6C254.824 66.2 257.224 63.5667 260.291 61.7C263.424 59.7667 266.991 58.8 270.991 58.8C277.324 58.8 282.291 60.8333 285.891 64.9C289.491 68.9667 291.291 74.5667 291.291 81.7V85.1H298.291ZM323.597 85.1C325.197 85.1 326.43 84.8333 327.297 84.3C328.164 83.7667 328.597 83.0333 328.597 82.1C328.597 81.2333 328.364 80.4333 327.897 79.7C327.497 78.9 326.83 78.0333 325.897 77.1L305.097 56.8V45.2L343.897 30.5L347.797 44.9L323.797 54L336.997 67.2C339.73 69.9333 341.664 72.6 342.797 75.2C343.93 77.7333 344.497 80.5 344.497 83.5C344.497 88.7667 342.764 92.9333 339.297 96C335.83 99 331.03 100.5 324.897 100.5H298.297C297.63 100.5 297.297 97.9667 297.297 92.9C297.297 89.7 297.397 87.6 297.597 86.6C297.797 85.6 298.03 85.1 298.297 85.1H323.597Z"/>
</mask>
<path d="M37.5945 85.1C38.9279 85.1 39.9945 84.8333 40.7945 84.3C41.6612 83.7 42.0945 82.9667 42.0945 82.1C42.0945 81.3 41.6612 79.7333 40.7945 77.4C39.9945 75.0667 38.0612 69.9 34.9945 61.9C34.0612 59.4333 33.0279 56.7667 31.8945 53.9L45.6945 47.5L57.3945 80C57.9945 81.8 58.7279 83.1 59.5945 83.9C60.4612 84.7 61.5945 85.1 62.9945 85.1H65.7945C66.4612 85.1 66.7945 87.7 66.7945 92.9C66.7945 96.2333 66.6945 98.3333 66.4945 99.2C66.2945 100.067 66.0612 100.5 65.7945 100.5H61.9945C59.3945 100.5 57.0945 100.133 55.0945 99.4C53.1612 98.6667 51.5612 97.4667 50.2945 95.8C48.9612 97.5333 47.3945 98.7667 45.5945 99.5C43.7945 100.167 41.6612 100.5 39.1945 100.5H15.6945L14.4945 85.1H37.5945ZM91.0773 85.1C92.6773 85.1 93.9107 84.8333 94.7773 84.3C95.644 83.7667 96.0773 83.0333 96.0773 82.1C96.0773 81.2333 95.844 80.4333 95.3773 79.7C94.9773 78.9 94.3107 78.0333 93.3773 77.1L72.5773 56.8V45.2L111.377 30.5L115.277 44.9L91.2773 54L104.477 67.2C107.211 69.9333 109.144 72.6 110.277 75.2C111.411 77.7333 111.977 80.5 111.977 83.5C111.977 88.7667 110.244 92.9333 106.777 96C103.311 99 98.5107 100.5 92.3773 100.5H65.7773C65.1107 100.5 64.7773 97.9667 64.7773 92.9C64.7773 89.7 64.8773 87.6 65.0773 86.6C65.2773 85.6 65.5107 85.1 65.7773 85.1H91.0773ZM173.308 85.1H214.908C215.574 85.1 215.908 87.7 215.908 92.9C215.908 97.9667 215.574 100.5 214.908 100.5H207.408C207.608 100.7 207.741 101 207.808 101.4C207.874 101.8 207.908 102.2 207.908 102.6C207.774 106.867 206.541 110.6 204.208 113.8C201.874 117.067 198.608 119.6 194.408 121.4C190.274 123.2 185.541 124.1 180.208 124.1H172.708C164.041 124.1 157.308 121.567 152.508 116.5C147.708 111.5 145.308 104.533 145.308 95.6V75.1H160.108V95.2C160.108 99.7333 161.108 103.1 163.108 105.3C165.174 107.567 168.441 108.7 172.908 108.7H181.008C185.408 108.7 188.574 108.167 190.508 107.1C192.441 106.1 193.408 104.6 193.408 102.6C193.408 101.467 193.108 100.667 192.508 100.2C191.908 99.6667 190.941 99.4 189.608 99.4H172.108L173.308 85.1ZM218.598 85.1C219.932 85.1 220.998 84.7333 221.798 84C222.598 83.2667 222.998 82.2333 222.998 80.9V36.2H237.798V81.8C237.798 87.6667 236.098 92.2667 232.698 95.6C229.365 98.8667 224.798 100.5 218.998 100.5H214.898C214.232 100.5 213.898 97.9667 213.898 92.9C213.898 87.7 214.232 85.1 214.898 85.1H218.598ZM264.991 80.3C264.991 81.5667 265.191 82.6 265.591 83.4C265.991 84.1333 266.657 84.7 267.591 85.1C268.524 85.5 269.824 85.7 271.491 85.7H276.991V81.1C276.991 78.5 276.457 76.5333 275.391 75.2C274.324 73.8667 272.757 73.2 270.691 73.2C268.891 73.2 267.491 73.8667 266.491 75.2C265.491 76.4667 264.991 78.1667 264.991 80.3ZM298.291 85.1C298.957 85.1 299.291 87.7 299.291 92.9C299.291 97.9667 298.957 100.5 298.291 100.5H290.991C290.257 107.9 287.591 113.667 282.991 117.8C278.391 122 272.424 124.1 265.091 124.1H250.991L249.791 108.9H266.791C269.924 108.9 272.357 108.133 274.091 106.6C275.891 105.133 276.791 103.1 276.791 100.5H271.191C263.857 100.5 258.591 98.9667 255.391 95.9C252.191 92.8333 250.591 87.8667 250.591 81C250.591 76.7333 251.424 72.9333 253.091 69.6C254.824 66.2 257.224 63.5667 260.291 61.7C263.424 59.7667 266.991 58.8 270.991 58.8C277.324 58.8 282.291 60.8333 285.891 64.9C289.491 68.9667 291.291 74.5667 291.291 81.7V85.1H298.291ZM323.597 85.1C325.197 85.1 326.43 84.8333 327.297 84.3C328.164 83.7667 328.597 83.0333 328.597 82.1C328.597 81.2333 328.364 80.4333 327.897 79.7C327.497 78.9 326.83 78.0333 325.897 77.1L305.097 56.8V45.2L343.897 30.5L347.797 44.9L323.797 54L336.997 67.2C339.73 69.9333 341.664 72.6 342.797 75.2C343.93 77.7333 344.497 80.5 344.497 83.5C344.497 88.7667 342.764 92.9333 339.297 96C335.83 99 331.03 100.5 324.897 100.5H298.297C297.63 100.5 297.297 97.9667 297.297 92.9C297.297 89.7 297.397 87.6 297.597 86.6C297.797 85.6 298.03 85.1 298.297 85.1H323.597Z" fill="#1D1D3D"/>
<path d="M40.7945 84.3L46.3415 92.6205C46.3902 92.5881 46.4386 92.5552 46.4866 92.5219L40.7945 84.3ZM40.7945 77.4L31.3351 80.6432C31.3625 80.7231 31.3909 80.8027 31.4203 80.8819L40.7945 77.4ZM34.9945 61.9L25.6417 65.4389C25.6468 65.4524 25.6519 65.4659 25.6571 65.4794L34.9945 61.9ZM31.8945 53.9L27.6873 44.8281C22.8804 47.0574 20.6468 52.6491 22.5949 57.5766L31.8945 53.9ZM45.6945 47.5L55.1034 44.1128C54.1529 41.4725 52.1368 39.3531 49.5472 38.2719C46.9577 37.1908 44.033 37.2475 41.4873 38.4281L45.6945 47.5ZM57.3945 80L66.8814 76.8377C66.8563 76.7624 66.8303 76.6875 66.8034 76.6128L57.3945 80ZM59.5945 83.9L66.3773 76.552L59.5945 83.9ZM66.4945 99.2L76.2384 101.449L76.2385 101.449L66.4945 99.2ZM55.0945 99.4L51.548 108.75C51.5826 108.763 51.6173 108.776 51.652 108.789L55.0945 99.4ZM50.2945 95.8L58.2562 89.7492C56.3714 87.2692 53.4386 85.8091 50.3237 85.8C47.2087 85.791 44.2675 87.2339 42.3683 89.7029L50.2945 95.8ZM45.5945 99.5L49.0677 108.877C49.1682 108.84 49.2682 108.801 49.3675 108.761L45.5945 99.5ZM15.6945 100.5L5.72475 101.277C6.1304 106.483 10.473 110.5 15.6945 110.5V100.5ZM14.4945 85.1V75.1C11.7074 75.1 9.04666 76.2632 7.15394 78.3091C5.26121 80.3551 4.30823 83.0981 4.52475 85.8769L14.4945 85.1ZM37.5945 95.1C40.1642 95.1 43.3768 94.597 46.3415 92.6205L35.2475 75.9795C35.9275 75.5262 36.5479 75.3039 36.9692 75.1986C37.1769 75.1466 37.3378 75.1225 37.4402 75.1112C37.492 75.1054 37.5311 75.1027 37.5564 75.1013C37.5692 75.1006 37.5788 75.1003 37.5851 75.1002C37.5882 75.1001 37.5906 75.1 37.5922 75.1C37.593 75.1 37.5936 75.1 37.5939 75.1C37.5941 75.1 37.5943 75.1 37.5944 75.1C37.5944 75.1 37.5945 75.1 37.5945 75.1C37.5939 75.1 37.5952 75.1 37.5945 75.1C37.5939 75.1 37.5952 75.1 37.5945 75.1V95.1ZM46.4866 92.5219C49.3886 90.5129 52.0945 86.9792 52.0945 82.1H32.0945C32.0945 80.7765 32.4499 79.4148 33.1603 78.2127C33.8312 77.0773 34.6233 76.4098 35.1024 76.0781L46.4866 92.5219ZM52.0945 82.1C52.0945 80.2838 51.6708 78.6104 51.4076 77.6591C51.0861 76.4965 50.6555 75.2284 50.1688 73.9181L31.4203 80.8819C31.8003 81.9049 32.0197 82.5869 32.1314 82.9909C32.1862 83.189 32.1907 83.2331 32.1768 83.1573C32.169 83.1146 32.1506 83.0083 32.1334 82.85C32.1167 82.6972 32.0945 82.4383 32.0945 82.1H52.0945ZM50.254 74.1567C49.3844 71.6204 47.3811 66.2748 44.332 58.3206L25.6571 65.4794C28.7413 73.5252 30.6047 78.5129 31.3351 80.6432L50.254 74.1567ZM44.3474 58.3611C43.394 55.8415 42.3426 53.1284 41.1941 50.2234L22.5949 57.5766C23.7131 60.4049 24.7284 63.0252 25.6417 65.4389L44.3474 58.3611ZM36.1018 62.9719L49.9018 56.5719L41.4873 38.4281L27.6873 44.8281L36.1018 62.9719ZM36.2857 50.8872L47.9857 83.3872L66.8034 76.6128L55.1034 44.1128L36.2857 50.8872ZM47.9077 83.1623C48.7501 85.6895 50.1694 88.809 52.8117 91.248L66.3773 76.552C66.6348 76.7897 66.8125 76.9997 66.9239 77.1458C67.0348 77.2915 67.091 77.3882 67.1043 77.4118C67.1179 77.4358 67.0989 77.4053 67.0559 77.3051C67.0131 77.2057 66.9531 77.0529 66.8814 76.8377L47.9077 83.1623ZM52.8117 91.248C55.8621 94.0637 59.5794 95.1 62.9945 95.1V75.1C63.2451 75.1 63.7603 75.1363 64.4227 75.3701C65.1121 75.6134 65.7932 76.0128 66.3773 76.552L52.8117 91.248ZM62.9945 95.1H65.7945V75.1H62.9945V95.1ZM65.7945 95.1C62.2237 95.1 59.7882 93.24 58.5865 91.901C57.5081 90.6994 57.0443 89.5563 56.8986 89.1773C56.5861 88.3648 56.5716 87.8994 56.6257 88.3216C56.7085 88.967 56.7945 90.3977 56.7945 92.9H76.7945C76.7945 90.2023 76.7139 87.733 76.4633 85.7784C76.3508 84.9006 76.128 83.4602 75.5655 81.9977C75.2947 81.2937 74.6955 79.9069 73.4713 78.5428C72.1238 77.0412 69.532 75.1 65.7945 75.1V95.1ZM56.7945 92.9C56.7945 94.4881 56.7703 95.6714 56.7309 96.4994C56.7112 96.9127 56.6906 97.1732 56.6765 97.3127C56.6572 97.5041 56.6643 97.3255 56.7506 96.9514L76.2385 101.449C76.5602 100.054 76.6577 98.5124 76.7082 97.4506C76.7688 96.1785 76.7945 94.6453 76.7945 92.9H56.7945ZM56.7506 96.9514C56.7521 96.945 56.7812 96.8173 56.8515 96.6065C56.9141 96.4184 57.0685 95.9844 57.3648 95.434C57.6278 94.9456 58.2532 93.8895 59.439 92.8618C60.7411 91.7334 62.9163 90.5 65.7945 90.5V110.5C71.9207 110.5 74.5899 105.63 74.9742 104.916C75.7246 103.523 76.0715 102.172 76.2384 101.449L56.7506 96.9514ZM65.7945 90.5H61.9945V110.5H65.7945V90.5ZM61.9945 90.5C60.3184 90.5 59.2213 90.2621 58.5371 90.0112L51.652 108.789C54.9677 110.005 58.4706 110.5 61.9945 110.5V90.5ZM58.6411 90.05C58.4823 89.9898 58.4041 89.9438 58.2562 89.7492L42.3329 101.851C44.7183 104.99 47.8401 107.344 51.548 108.75L58.6411 90.05ZM42.3683 89.7029C42.1584 89.9757 42.007 90.1101 41.9339 90.1676C41.8661 90.221 41.8334 90.2342 41.8216 90.2391L49.3675 108.761C53.0053 107.279 55.9456 104.855 58.2208 101.897L42.3683 89.7029ZM42.1214 90.1225C41.6993 90.2788 40.7974 90.5 39.1945 90.5V110.5C42.525 110.5 45.8898 110.054 49.0677 108.877L42.1214 90.1225ZM39.1945 90.5H15.6945V110.5H39.1945V90.5ZM25.6643 99.7231L24.4643 84.3231L4.52475 85.8769L5.72475 101.277L25.6643 99.7231ZM14.4945 95.1H37.5945V75.1H14.4945V95.1ZM94.7773 84.3L100.018 92.8166L100.018 92.8166L94.7773 84.3ZM95.3773 79.7L86.4331 84.1721C86.5868 84.4795 86.7562 84.7788 86.9407 85.0688L95.3773 79.7ZM93.3773 77.1L100.448 70.0289C100.42 70.0003 100.391 69.9718 100.362 69.9434L93.3773 77.1ZM72.5773 56.8H62.5773C62.5773 59.4943 63.6646 62.0747 65.5928 63.9566L72.5773 56.8ZM72.5773 45.2L69.0344 35.8486C65.148 37.3211 62.5773 41.0439 62.5773 45.2H72.5773ZM111.377 30.5L121.03 27.8858C120.292 25.1622 118.438 22.8769 115.925 21.5937C113.412 20.3106 110.473 20.1489 107.834 21.1486L111.377 30.5ZM115.277 44.9L118.823 54.2504C123.633 52.4266 126.274 47.2511 124.93 42.2858L115.277 44.9ZM91.2773 54L87.732 44.6496C84.5589 45.8527 82.2125 48.5829 81.5002 51.9008C80.7878 55.2187 81.8067 58.6715 84.2063 61.0711L91.2773 54ZM104.477 67.2L97.4063 74.2711L97.4063 74.2711L104.477 67.2ZM110.277 75.2L101.11 79.1958C101.123 79.2252 101.136 79.2544 101.149 79.2837L110.277 75.2ZM106.777 96L113.321 103.562C113.349 103.538 113.376 103.514 113.403 103.49L106.777 96ZM65.0773 86.6L55.2715 84.6388L55.2715 84.6388L65.0773 86.6ZM91.0773 95.1C93.5603 95.1 96.9163 94.7255 100.018 92.8166L89.5364 75.7834C90.2666 75.334 90.8546 75.1765 91.089 75.1259C91.3225 75.0754 91.3462 75.1 91.0773 75.1V95.1ZM100.018 92.8166C103.522 90.6606 106.077 86.8666 106.077 82.1H86.0773C86.0773 80.9535 86.3635 79.582 87.1431 78.2627C87.9003 76.9813 88.8531 76.2039 89.5364 75.7834L100.018 92.8166ZM106.077 82.1C106.077 79.3255 105.298 76.664 103.814 74.3312L86.9407 85.0688C86.3895 84.2026 86.0773 83.1411 86.0773 82.1H106.077ZM104.322 75.2279C103.271 73.1261 101.815 71.396 100.448 70.0289L86.3063 84.1711C86.4141 84.2789 86.495 84.3657 86.5533 84.4311C86.6116 84.4968 86.6422 84.5356 86.6511 84.5471C86.6602 84.5589 86.6417 84.5359 86.6046 84.478C86.5677 84.4204 86.5061 84.3183 86.4331 84.1721L104.322 75.2279ZM100.362 69.9434L79.5619 49.6434L65.5928 63.9566L86.3928 84.2566L100.362 69.9434ZM82.5773 56.8V45.2H62.5773V56.8H82.5773ZM76.1203 54.5513L114.92 39.8513L107.834 21.1486L69.0344 35.8486L76.1203 54.5513ZM101.725 33.1142L105.625 47.5141L124.93 42.2858L121.03 27.8858L101.725 33.1142ZM111.732 35.5496L87.732 44.6496L94.8227 63.3504L118.823 54.2504L111.732 35.5496ZM84.2063 61.0711L97.4063 74.2711L111.548 60.1289L98.3484 46.9289L84.2063 61.0711ZM97.4063 74.2711C99.5551 76.4199 100.623 78.0769 101.11 79.1958L119.444 71.2041C117.665 67.1231 114.866 63.4468 111.548 60.1289L97.4063 74.2711ZM101.149 79.2837C101.662 80.4309 101.977 81.792 101.977 83.5H121.977C121.977 79.208 121.159 75.0357 119.406 71.1163L101.149 79.2837ZM101.977 83.5C101.977 86.3404 101.165 87.6138 100.152 88.51L113.403 103.49C119.323 98.2528 121.977 91.1929 121.977 83.5H101.977ZM100.234 88.4383C99.121 89.4011 96.9276 90.5 92.3773 90.5V110.5C100.094 110.5 107.5 108.599 113.321 103.562L100.234 88.4383ZM92.3773 90.5H65.7773V110.5H92.3773V90.5ZM65.7773 90.5C69.2482 90.5 71.6623 92.2644 72.8984 93.6065C74.0016 94.8042 74.4841 95.9548 74.6414 96.3533C74.9736 97.1949 74.9942 97.6932 74.9419 97.2955C74.8636 96.7001 74.7773 95.3329 74.7773 92.9H54.7773C54.7773 95.5337 54.8578 97.9666 55.1128 99.9045C55.2271 100.773 55.4561 102.222 56.0383 103.697C56.3206 104.412 56.9385 105.8 58.1875 107.156C59.5695 108.656 62.1398 110.5 65.7773 110.5V90.5ZM74.7773 92.9C74.7773 91.3861 74.8014 90.2334 74.841 89.4007C74.8608 88.9863 74.8821 88.7 74.8996 88.5195C74.9196 88.3124 74.9238 88.3577 74.8832 88.5612L55.2715 84.6388C54.8428 86.7825 54.7773 89.9028 54.7773 92.9H74.7773ZM74.8832 88.5612C74.9348 88.3029 74.858 88.8598 74.4642 89.7039C74.2744 90.1104 73.7449 91.1746 72.6547 92.2648C71.4743 93.4451 69.1404 95.1 65.7773 95.1V75.1C62.281 75.1 59.8178 76.8174 58.5125 78.1227C57.2973 79.3379 56.6469 80.5896 56.3405 81.2461C55.7133 82.5901 55.4199 83.8971 55.2715 84.6388L74.8832 88.5612ZM65.7773 95.1H91.0773V75.1H65.7773V95.1ZM173.308 85.1V75.1C168.109 75.1 163.778 79.0833 163.343 84.2638L173.308 85.1ZM207.408 100.5V90.5C203.363 90.5 199.717 92.9364 198.169 96.6732C196.621 100.41 197.477 104.711 200.337 107.571L207.408 100.5ZM207.808 101.4L197.944 103.044L207.808 101.4ZM207.908 102.6L217.903 102.912C217.906 102.808 217.908 102.704 217.908 102.6L207.908 102.6ZM204.208 113.8L196.128 107.908C196.109 107.935 196.089 107.961 196.07 107.988L204.208 113.8ZM194.408 121.4L190.469 112.209C190.451 112.216 190.433 112.224 190.415 112.232L194.408 121.4ZM152.508 116.5L159.767 109.623C159.752 109.607 159.737 109.591 159.722 109.575L152.508 116.5ZM145.308 75.1V65.1C139.785 65.1 135.308 69.5772 135.308 75.1H145.308ZM160.108 75.1H170.108C170.108 69.5772 165.631 65.1 160.108 65.1V75.1ZM163.108 105.3L155.708 112.027C155.712 112.03 155.715 112.034 155.718 112.038L163.108 105.3ZM190.508 107.1L185.914 98.2178C185.834 98.2589 185.755 98.301 185.677 98.3442L190.508 107.1ZM192.508 100.2L185.864 107.674C186.028 107.819 186.196 107.959 186.368 108.094L192.508 100.2ZM172.108 99.4L162.143 98.5638C161.909 101.352 162.853 104.11 164.747 106.169C166.641 108.228 169.31 109.4 172.108 109.4V99.4ZM173.308 95.1H214.908V75.1H173.308V95.1ZM214.908 95.1C211.337 95.1 208.902 93.2401 207.7 91.901C206.621 90.6994 206.158 89.5563 206.012 89.1773C205.699 88.3648 205.685 87.8994 205.739 88.3216C205.822 88.967 205.908 90.3977 205.908 92.9H225.908C225.908 90.2023 225.827 87.733 225.577 85.7783C225.464 84.9005 225.241 83.4602 224.679 81.9977C224.408 81.2937 223.809 79.9069 222.585 78.5428C221.237 77.0412 218.645 75.1 214.908 75.1V95.1ZM205.908 92.9C205.908 95.3329 205.822 96.7001 205.743 97.2954C205.691 97.6932 205.712 97.1949 206.044 96.3533C206.201 95.9548 206.684 94.8042 207.787 93.6065C209.023 92.2644 211.437 90.5 214.908 90.5V110.5C218.545 110.5 221.116 108.656 222.498 107.156C223.747 105.8 224.365 104.412 224.647 103.697C225.229 102.222 225.458 100.773 225.572 99.9046C225.827 97.9666 225.908 95.5337 225.908 92.9H205.908ZM214.908 90.5H207.408V110.5H214.908V90.5ZM200.337 107.571C198.549 105.783 198.077 103.842 197.944 103.044L217.672 99.756C217.405 98.1577 216.667 95.6169 214.479 93.4289L200.337 107.571ZM197.944 103.044C197.921 102.908 197.908 102.758 197.908 102.6H217.908C217.908 101.642 217.828 100.692 217.672 99.756L197.944 103.044ZM197.913 102.288C197.837 104.709 197.183 106.461 196.128 107.908L212.288 119.692C215.899 114.739 217.712 109.025 217.903 102.912L197.913 102.288ZM196.07 107.988C194.942 109.568 193.224 111.028 190.469 112.209L198.347 130.591C203.992 128.172 208.807 124.566 212.345 119.612L196.07 107.988ZM190.415 112.232C187.75 113.392 184.415 114.1 180.208 114.1V134.1C186.667 134.1 192.799 133.008 198.4 130.568L190.415 112.232ZM180.208 114.1H172.708V134.1H180.208V114.1ZM172.708 114.1C166.078 114.1 162.241 112.234 159.767 109.623L145.248 123.377C152.374 130.899 162.004 134.1 172.708 134.1V114.1ZM159.722 109.575C157.182 106.93 155.308 102.727 155.308 95.6H135.308C135.308 106.34 138.233 116.07 145.294 123.425L159.722 109.575ZM155.308 95.6V75.1H135.308V95.6H155.308ZM145.308 85.1H160.108V65.1H145.308V85.1ZM150.108 75.1V95.2H170.108V75.1H150.108ZM150.108 95.2C150.108 100.957 151.345 107.227 155.708 112.027L170.507 98.5733C170.686 98.7696 170.593 98.779 170.444 98.2777C170.285 97.7417 170.108 96.7669 170.108 95.2H150.108ZM155.718 112.038C160.408 117.181 166.93 118.7 172.908 118.7V98.7C171.482 98.7 170.708 98.5144 170.386 98.4024C170.124 98.3117 170.271 98.314 170.497 98.5625L155.718 112.038ZM172.908 118.7H181.008V98.7H172.908V118.7ZM181.008 118.7C185.731 118.7 191.07 118.211 195.339 115.856L185.677 98.3442C186.036 98.1463 185.953 98.2821 185.022 98.4389C184.146 98.5864 182.84 98.7 181.008 98.7V118.7ZM195.102 115.982C197.281 114.855 199.472 113.151 201.089 110.642C202.735 108.087 203.408 105.282 203.408 102.6H183.408C183.408 101.918 183.597 100.863 184.277 99.808C184.927 98.7991 185.668 98.3447 185.914 98.2178L195.102 115.982ZM203.408 102.6C203.408 99.9451 202.697 95.4561 198.647 92.3065L186.368 108.094C183.519 105.877 183.408 102.988 183.408 102.6H203.408ZM199.151 92.7259C195.843 89.7849 191.883 89.4 189.608 89.4V109.4C189.608 109.4 189.607 109.4 189.608 109.4C189.608 109.4 189.607 109.4 189.608 109.4C189.608 109.4 189.608 109.4 189.608 109.4C189.607 109.4 189.607 109.4 189.607 109.4C189.606 109.4 189.606 109.4 189.605 109.4C189.602 109.4 189.599 109.4 189.595 109.4C189.586 109.4 189.572 109.399 189.554 109.398C189.519 109.396 189.463 109.392 189.387 109.383C189.242 109.367 188.995 109.329 188.674 109.24C188.039 109.065 186.958 108.646 185.864 107.674L199.151 92.7259ZM189.608 89.4H172.108V109.4H189.608V89.4ZM182.073 100.236L183.273 85.9362L163.343 84.2638L162.143 98.5638L182.073 100.236ZM221.798 84L228.556 91.3715L228.556 91.3715L221.798 84ZM222.998 36.2V26.2C217.476 26.2 212.998 30.6772 212.998 36.2H222.998ZM237.798 36.2H247.798C247.798 30.6772 243.321 26.2 237.798 26.2V36.2ZM232.698 95.6L239.698 102.742L239.699 102.741L232.698 95.6ZM218.598 95.1C221.834 95.1 225.512 94.1611 228.556 91.3715L215.041 76.6285C215.694 76.0298 216.434 75.6136 217.148 75.3681C217.831 75.1332 218.355 75.1 218.598 75.1V95.1ZM228.556 91.3715C231.881 88.3232 232.998 84.3461 232.998 80.9H212.998C212.998 80.5766 213.047 79.9077 213.373 79.0651C213.716 78.1782 214.283 77.3238 215.041 76.6285L228.556 91.3715ZM232.998 80.9V36.2H212.998V80.9H232.998ZM222.998 46.2H237.798V26.2H222.998V46.2ZM227.798 36.2V81.8H247.798V36.2H227.798ZM227.798 81.8C227.798 85.6441 226.752 87.4255 225.698 88.4593L239.699 102.741C245.445 97.1078 247.798 89.6893 247.798 81.8H227.798ZM225.699 88.4579C224.665 89.4717 222.851 90.5 218.998 90.5V110.5C226.745 110.5 234.066 108.262 239.698 102.742L225.699 88.4579ZM218.998 90.5H214.898V110.5H218.998V90.5ZM214.898 90.5C218.369 90.5 220.783 92.2644 222.02 93.6065C223.123 94.8042 223.605 95.9548 223.762 96.3533C224.095 97.1949 224.115 97.6932 224.063 97.2955C223.985 96.7001 223.898 95.3329 223.898 92.9H203.898C203.898 95.5337 203.979 97.9666 204.234 99.9045C204.348 100.773 204.577 102.222 205.159 103.697C205.442 104.412 206.06 105.8 207.309 107.156C208.691 108.656 211.261 110.5 214.898 110.5V90.5ZM223.898 92.9C223.898 90.3977 223.985 88.967 224.067 88.3216C224.121 87.8994 224.107 88.3648 223.794 89.1773C223.649 89.5563 223.185 90.6994 222.106 91.901C220.905 93.24 218.469 95.1 214.898 95.1V75.1C211.161 75.1 208.569 77.0412 207.222 78.5428C205.997 79.9069 205.398 81.2937 205.127 81.9977C204.565 83.4602 204.342 84.9006 204.23 85.7784C203.979 87.733 203.898 90.2023 203.898 92.9H223.898ZM214.898 95.1H218.598V75.1H214.898V95.1ZM265.591 83.4L256.646 87.8721C256.7 87.9786 256.755 88.0841 256.812 88.1885L265.591 83.4ZM267.591 85.1L271.53 75.9086L271.53 75.9085L267.591 85.1ZM276.991 85.7V95.7C282.513 95.7 286.991 91.2228 286.991 85.7H276.991ZM275.391 75.2L283.199 68.953L283.199 68.953L275.391 75.2ZM266.491 75.2L274.339 81.3964C274.391 81.3316 274.441 81.2661 274.491 81.2L266.491 75.2ZM290.991 100.5V90.5C285.85 90.5 281.546 94.398 281.039 99.5138L290.991 100.5ZM282.991 117.8L276.307 110.362C276.287 110.379 276.268 110.397 276.248 110.415L282.991 117.8ZM250.991 124.1L241.022 124.887C241.432 130.088 245.773 134.1 250.991 134.1V124.1ZM249.791 108.9V98.9C247.002 98.9 244.339 100.065 242.447 102.113C240.554 104.161 239.602 106.907 239.822 109.687L249.791 108.9ZM274.091 106.6L267.774 98.8477C267.669 98.933 267.566 99.0205 267.465 99.11L274.091 106.6ZM276.791 100.5H286.791C286.791 94.9772 282.313 90.5 276.791 90.5V100.5ZM255.391 95.9L262.31 88.6801L262.31 88.6801L255.391 95.9ZM253.091 69.6L244.182 65.0581C244.17 65.0813 244.158 65.1046 244.146 65.1279L253.091 69.6ZM260.291 61.7L265.49 70.242C265.507 70.2315 265.525 70.221 265.542 70.2104L260.291 61.7ZM285.891 64.9L278.403 71.5284L278.403 71.5284L285.891 64.9ZM291.291 85.1H281.291C281.291 90.6228 285.768 95.1 291.291 95.1V85.1ZM254.991 80.3C254.991 82.5146 255.325 85.2286 256.646 87.8721L274.535 78.9279C274.806 79.47 274.915 79.9014 274.958 80.1248C275.001 80.3453 274.991 80.4196 274.991 80.3H254.991ZM256.812 88.1885C258.502 91.2875 261.115 93.2043 263.651 94.2914L271.53 75.9085C272.2 76.1957 273.479 76.9792 274.37 78.6115L256.812 88.1885ZM263.651 94.2914C266.377 95.4594 269.229 95.7 271.491 95.7V75.7C271.272 75.7 271.104 75.6934 270.982 75.6851C270.859 75.6769 270.797 75.6679 270.786 75.6663C270.775 75.6645 270.835 75.6731 270.954 75.705C271.072 75.7366 271.272 75.7979 271.53 75.9086L263.651 94.2914ZM271.491 95.7H276.991V75.7H271.491V95.7ZM286.991 85.7V81.1H266.991V85.7H286.991ZM286.991 81.1C286.991 77.3595 286.258 72.7766 283.199 68.953L267.582 81.4469C267.11 80.8566 266.963 80.3809 266.939 80.2923C266.928 80.2498 266.942 80.2887 266.958 80.4287C266.974 80.5686 266.991 80.7884 266.991 81.1H286.991ZM283.199 68.953C279.833 64.7449 275.087 63.2 270.691 63.2V83.2C270.659 83.2 270.19 83.1949 269.5 82.9015C268.757 82.5852 268.079 82.0681 267.582 81.447L283.199 68.953ZM270.691 63.2C266.035 63.2 261.548 65.1237 258.491 69.2L274.491 81.2C274.095 81.728 273.458 82.3151 272.59 82.7286C271.747 83.1299 271.04 83.2 270.691 83.2V63.2ZM258.642 69.0036C255.857 72.5308 254.991 76.6436 254.991 80.3H274.991C274.991 80.0007 275.027 80.0161 274.959 80.2467C274.884 80.5022 274.706 80.9326 274.339 81.3964L258.642 69.0036ZM298.291 95.1C294.72 95.1 292.284 93.24 291.083 91.901C290.004 90.6994 289.54 89.5563 289.395 89.1773C289.082 88.3648 289.068 87.8994 289.122 88.3216C289.205 88.967 289.291 90.3977 289.291 92.9H309.291C309.291 90.2023 309.21 87.733 308.959 85.7784C308.847 84.9006 308.624 83.4602 308.062 81.9977C307.791 81.2937 307.192 79.9069 305.967 78.5428C304.62 77.0412 302.028 75.1 298.291 75.1V95.1ZM289.291 92.9C289.291 95.3329 289.204 96.7001 289.126 97.2955C289.074 97.6933 289.094 97.1949 289.427 96.3533C289.584 95.9548 290.066 94.8043 291.17 93.6065C292.406 92.2644 294.82 90.5 298.291 90.5V110.5C301.928 110.5 304.498 108.656 305.88 107.156C307.129 105.8 307.747 104.412 308.03 103.697C308.612 102.222 308.841 100.773 308.955 99.9045C309.21 97.9666 309.291 95.5337 309.291 92.9H289.291ZM298.291 90.5H290.991V110.5H298.291V90.5ZM281.039 99.5138C280.5 104.961 278.689 108.221 276.307 110.362L289.674 125.238C296.492 119.112 300.015 110.839 300.942 101.486L281.039 99.5138ZM276.248 110.415C273.81 112.641 270.399 114.1 265.091 114.1V134.1C274.449 134.1 282.971 131.359 289.733 125.185L276.248 110.415ZM265.091 114.1H250.991V134.1H265.091V114.1ZM260.96 123.313L259.76 108.113L239.822 109.687L241.022 124.887L260.96 123.313ZM249.791 118.9H266.791V98.9H249.791V118.9ZM266.791 118.9C271.493 118.9 276.593 117.737 280.716 114.09L267.465 99.11C267.596 98.9937 267.723 98.9085 267.827 98.8515C267.928 98.7958 267.98 98.7809 267.961 98.7872C267.908 98.8036 267.561 98.9 266.791 98.9V118.9ZM280.407 114.352C284.836 110.743 286.791 105.699 286.791 100.5H266.791C266.791 100.64 266.77 100.383 266.971 99.9275C267.187 99.4395 267.508 99.064 267.774 98.8477L280.407 114.352ZM276.791 90.5H271.191V110.5H276.791V90.5ZM271.191 90.5C264.845 90.5 262.751 89.103 262.31 88.6801L248.472 103.12C254.43 108.83 262.87 110.5 271.191 110.5V90.5ZM262.31 88.6801C261.933 88.3192 260.591 86.6107 260.591 81H240.591C240.591 89.1227 242.448 97.3475 248.472 103.12L262.31 88.6801ZM260.591 81C260.591 78.06 261.157 75.8282 262.035 74.0721L244.146 65.1279C241.691 70.0385 240.591 75.4067 240.591 81H260.591ZM262 74.1419C262.946 72.2847 264.108 71.0834 265.49 70.242L255.091 53.158C250.34 56.0499 246.701 60.1153 244.182 65.0581L262 74.1419ZM265.542 70.2104C266.961 69.3346 268.679 68.8 270.991 68.8V48.8C265.302 48.8 259.887 50.1987 255.04 53.1896L265.542 70.2104ZM270.991 68.8C274.984 68.8 277.023 69.9691 278.403 71.5284L293.378 58.2716C287.559 51.6975 279.663 48.8 270.991 48.8V68.8ZM278.403 71.5284C279.932 73.256 281.291 76.2281 281.291 81.7H301.291C301.291 72.9053 299.049 64.6773 293.378 58.2716L278.403 71.5284ZM281.291 81.7V85.1H301.291V81.7H281.291ZM291.291 95.1H298.291V75.1H291.291V95.1ZM327.297 84.3L332.538 92.8166L332.538 92.8166L327.297 84.3ZM327.897 79.7L318.953 84.1721C319.106 84.4795 319.276 84.7788 319.46 85.0688L327.897 79.7ZM325.897 77.1L332.968 70.0289C332.939 70.0003 332.91 69.9718 332.881 69.9434L325.897 77.1ZM305.097 56.8H295.097C295.097 59.4943 296.184 62.0747 298.112 63.9566L305.097 56.8ZM305.097 45.2L301.554 35.8486C297.667 37.3211 295.097 41.0439 295.097 45.2H305.097ZM343.897 30.5L353.549 27.8858C352.811 25.1622 350.957 22.8769 348.444 21.5937C345.931 20.3106 342.993 20.1489 340.354 21.1486L343.897 30.5ZM347.797 44.9L351.342 54.2504C356.152 52.4266 358.794 47.2511 357.449 42.2858L347.797 44.9ZM323.797 54L320.252 44.6496C317.078 45.8527 314.732 48.5829 314.02 51.9008C313.307 55.2187 314.326 58.6715 316.726 61.0711L323.797 54ZM336.997 67.2L329.926 74.2711L329.926 74.2711L336.997 67.2ZM342.797 75.2L333.63 79.1958C333.643 79.2252 333.656 79.2544 333.669 79.2837L342.797 75.2ZM339.297 96L345.841 103.562C345.868 103.538 345.895 103.514 345.923 103.49L339.297 96ZM297.597 86.6L287.791 84.6388L287.791 84.6388L297.597 86.6ZM323.597 95.1C326.08 95.1 329.436 94.7255 332.538 92.8166L322.056 75.7834C322.786 75.334 323.374 75.1765 323.609 75.1259C323.842 75.0754 323.866 75.1 323.597 75.1V95.1ZM332.538 92.8166C336.041 90.6606 338.597 86.8666 338.597 82.1H318.597C318.597 80.9535 318.883 79.582 319.663 78.2627C320.42 76.9813 321.373 76.2039 322.056 75.7834L332.538 92.8166ZM338.597 82.1C338.597 79.3255 337.818 76.664 336.333 74.3312L319.46 85.0688C318.909 84.2026 318.597 83.1411 318.597 82.1H338.597ZM336.841 75.2279C335.79 73.1261 334.335 71.396 332.968 70.0289L318.826 84.1711C318.934 84.2789 319.015 84.3657 319.073 84.4311C319.131 84.4968 319.162 84.5356 319.171 84.5471C319.18 84.5589 319.161 84.5359 319.124 84.478C319.087 84.4204 319.026 84.3183 318.953 84.1721L336.841 75.2279ZM332.881 69.9434L312.081 49.6434L298.112 63.9566L318.912 84.2566L332.881 69.9434ZM315.097 56.8V45.2H295.097V56.8H315.097ZM308.64 54.5513L347.44 39.8513L340.354 21.1486L301.554 35.8486L308.64 54.5513ZM334.245 33.1142L338.145 47.5141L357.449 42.2858L353.549 27.8858L334.245 33.1142ZM344.252 35.5496L320.252 44.6496L327.342 63.3504L351.342 54.2504L344.252 35.5496ZM316.726 61.0711L329.926 74.2711L344.068 60.1289L330.868 46.9289L316.726 61.0711ZM329.926 74.2711C332.075 76.4199 333.142 78.0769 333.63 79.1958L351.964 71.2041C350.185 67.1231 347.386 63.4468 344.068 60.1289L329.926 74.2711ZM333.669 79.2837C334.182 80.4309 334.497 81.792 334.497 83.5H354.497C354.497 79.208 353.678 75.0357 351.925 71.1163L333.669 79.2837ZM334.497 83.5C334.497 86.3404 333.684 87.6138 332.671 88.51L345.923 103.49C351.843 98.2528 354.497 91.1929 354.497 83.5H334.497ZM332.753 88.4383C331.641 89.4011 329.447 90.5 324.897 90.5V110.5C332.613 110.5 340.02 108.599 345.841 103.562L332.753 88.4383ZM324.897 90.5H298.297V110.5H324.897V90.5ZM298.297 90.5C301.768 90.5 304.182 92.2644 305.418 93.6065C306.521 94.8042 307.004 95.9548 307.161 96.3533C307.493 97.1949 307.514 97.6932 307.461 97.2955C307.383 96.7001 307.297 95.3329 307.297 92.9H287.297C287.297 95.5337 287.377 97.9666 287.632 99.9045C287.747 100.773 287.976 102.222 288.558 103.697C288.84 104.412 289.458 105.8 290.707 107.156C292.089 108.656 294.659 110.5 298.297 110.5V90.5ZM307.297 92.9C307.297 91.3861 307.321 90.2334 307.361 89.4007C307.38 88.9863 307.402 88.7 307.419 88.5195C307.439 88.3124 307.443 88.3577 307.403 88.5612L287.791 84.6388C287.362 86.7825 287.297 89.9028 287.297 92.9H307.297ZM307.403 88.5612C307.454 88.3029 307.378 88.8598 306.984 89.7039C306.794 90.1104 306.264 91.1746 305.174 92.2648C303.994 93.4451 301.66 95.1 298.297 95.1V75.1C294.801 75.1 292.337 76.8174 291.032 78.1227C289.817 79.3379 289.166 80.5896 288.86 81.2461C288.233 82.5901 287.939 83.8971 287.791 84.6388L307.403 88.5612ZM298.297 95.1H323.597V75.1H298.297V95.1Z" fill="white" mask="url(#path-1-outside-1_1048_12330)"/>
</svg>
