<svg width="268" height="74" viewBox="0 0 268 74" fill="none" xmlns="http://www.w3.org/2000/svg">
<mask id="path-1-outside-1_1048_12335" maskUnits="userSpaceOnUse" x="48" y="10" width="171" height="54" fill="black">
<rect fill="white" x="48" y="10" width="171" height="54"/>
<path d="M63.7134 41.616C64.5134 41.616 65.1534 41.456 65.6334 41.136C66.1134 40.784 66.3534 40.336 66.3534 39.792C66.3534 39.344 66.1454 38.56 65.7294 37.44C65.3454 36.288 64.3214 33.504 62.6574 29.088C62.0494 27.488 61.6174 26.336 61.3614 25.632L67.0254 22.944L72.5934 38.496C73.0094 39.648 73.4574 40.464 73.9374 40.944C74.4174 41.392 75.0734 41.616 75.9054 41.616H77.1534C77.4734 41.616 77.6334 42.72 77.6334 44.928C77.6334 46.24 77.5854 47.088 77.4894 47.472C77.3934 47.824 77.2814 48 77.1534 48H75.6174C74.2094 48 73.0094 47.808 72.0174 47.424C71.0574 47.008 70.2894 46.352 69.7134 45.456C69.1374 46.352 68.3694 47.008 67.4094 47.424C66.4814 47.808 65.3134 48 63.9054 48H52.9614L52.4814 41.616H63.7134ZM89.9075 41.616C90.8995 41.616 91.6515 41.456 92.1635 41.136C92.7075 40.816 92.9795 40.368 92.9795 39.792C92.9795 39.28 92.8515 38.816 92.5955 38.4C92.3715 37.984 91.9875 37.488 91.4435 36.912L81.0275 26.736V21.744L99.2195 14.736L100.948 20.688L88.5635 25.344L96.0515 32.784C97.1715 33.936 97.9875 35.12 98.4995 36.336C99.0435 37.52 99.3155 38.8 99.3155 40.176C99.3155 42.512 98.4995 44.4 96.8675 45.84C95.2675 47.28 93.0115 48 90.0995 48H77.1875C76.8675 48 76.7075 46.976 76.7075 44.928C76.7075 43.584 76.7555 42.704 76.8515 42.288C76.9475 41.84 77.0595 41.616 77.1875 41.616H89.9075ZM130.879 41.616H150.943C151.263 41.616 151.423 42.72 151.423 44.928C151.423 46.976 151.263 48 150.943 48H146.719C146.847 48.128 146.927 48.32 146.959 48.576C147.023 48.864 147.055 49.168 147.055 49.488C147.055 51.44 146.495 53.168 145.375 54.672C144.255 56.176 142.703 57.344 140.719 58.176C138.735 59.04 136.447 59.472 133.855 59.472H130.255C126.095 59.472 122.879 58.272 120.607 55.872C118.367 53.504 117.247 50.176 117.247 45.888V36.288H123.343V45.744C123.343 48.176 123.903 50 125.023 51.216C126.143 52.464 127.887 53.088 130.255 53.088H133.951C136.383 53.088 138.159 52.784 139.279 52.176C140.399 51.568 140.959 50.672 140.959 49.488C140.959 48.848 140.783 48.384 140.431 48.096C140.111 47.808 139.535 47.664 138.703 47.664H130.303L130.879 41.616ZM152.65 41.616C153.45 41.616 154.09 41.408 154.57 40.992C155.05 40.544 155.29 39.936 155.29 39.168V17.088H161.434V39.456C161.434 42.112 160.65 44.208 159.082 45.744C157.514 47.248 155.386 48 152.698 48H150.922C150.602 48 150.442 46.976 150.442 44.928C150.442 42.72 150.602 41.616 150.922 41.616H152.65ZM174.39 38.736C174.39 39.44 174.502 40 174.726 40.416C174.982 40.832 175.382 41.152 175.926 41.376C176.502 41.568 177.27 41.664 178.23 41.664H181.35V39.168C181.35 37.632 181.03 36.464 180.39 35.664C179.782 34.864 178.918 34.464 177.798 34.464C176.71 34.464 175.862 34.864 175.254 35.664C174.678 36.432 174.39 37.456 174.39 38.736ZM191.142 41.616C191.462 41.616 191.622 42.72 191.622 44.928C191.622 46.976 191.462 48 191.142 48H187.35C187.03 51.616 185.766 54.432 183.558 56.448C181.35 58.464 178.486 59.472 174.966 59.472H168.39L167.862 53.088H175.35C177.206 53.088 178.662 52.624 179.718 51.696C180.806 50.8 181.35 49.568 181.35 48H177.99C174.534 48 172.054 47.28 170.55 45.84C169.078 44.4 168.342 42.112 168.342 38.976C168.342 36.928 168.742 35.104 169.542 33.504C170.342 31.904 171.478 30.656 172.95 29.76C174.422 28.864 176.102 28.416 177.99 28.416C180.902 28.416 183.206 29.376 184.902 31.296C186.598 33.216 187.446 35.872 187.446 39.264V41.616H191.142ZM203.861 41.616C204.853 41.616 205.605 41.456 206.117 41.136C206.661 40.816 206.933 40.368 206.933 39.792C206.933 39.28 206.805 38.816 206.549 38.4C206.325 37.984 205.941 37.488 205.397 36.912L194.981 26.736V21.744L213.173 14.736L214.901 20.688L202.517 25.344L210.005 32.784C211.125 33.936 211.941 35.12 212.453 36.336C212.997 37.52 213.269 38.8 213.269 40.176C213.269 42.512 212.453 44.4 210.821 45.84C209.221 47.28 206.965 48 204.053 48H191.141C190.821 48 190.661 46.976 190.661 44.928C190.661 43.584 190.709 42.704 190.805 42.288C190.901 41.84 191.013 41.616 191.141 41.616H203.861Z"/>
</mask>
<path d="M63.7134 41.616C64.5134 41.616 65.1534 41.456 65.6334 41.136C66.1134 40.784 66.3534 40.336 66.3534 39.792C66.3534 39.344 66.1454 38.56 65.7294 37.44C65.3454 36.288 64.3214 33.504 62.6574 29.088C62.0494 27.488 61.6174 26.336 61.3614 25.632L67.0254 22.944L72.5934 38.496C73.0094 39.648 73.4574 40.464 73.9374 40.944C74.4174 41.392 75.0734 41.616 75.9054 41.616H77.1534C77.4734 41.616 77.6334 42.72 77.6334 44.928C77.6334 46.24 77.5854 47.088 77.4894 47.472C77.3934 47.824 77.2814 48 77.1534 48H75.6174C74.2094 48 73.0094 47.808 72.0174 47.424C71.0574 47.008 70.2894 46.352 69.7134 45.456C69.1374 46.352 68.3694 47.008 67.4094 47.424C66.4814 47.808 65.3134 48 63.9054 48H52.9614L52.4814 41.616H63.7134ZM89.9075 41.616C90.8995 41.616 91.6515 41.456 92.1635 41.136C92.7075 40.816 92.9795 40.368 92.9795 39.792C92.9795 39.28 92.8515 38.816 92.5955 38.4C92.3715 37.984 91.9875 37.488 91.4435 36.912L81.0275 26.736V21.744L99.2195 14.736L100.948 20.688L88.5635 25.344L96.0515 32.784C97.1715 33.936 97.9875 35.12 98.4995 36.336C99.0435 37.52 99.3155 38.8 99.3155 40.176C99.3155 42.512 98.4995 44.4 96.8675 45.84C95.2675 47.28 93.0115 48 90.0995 48H77.1875C76.8675 48 76.7075 46.976 76.7075 44.928C76.7075 43.584 76.7555 42.704 76.8515 42.288C76.9475 41.84 77.0595 41.616 77.1875 41.616H89.9075ZM130.879 41.616H150.943C151.263 41.616 151.423 42.72 151.423 44.928C151.423 46.976 151.263 48 150.943 48H146.719C146.847 48.128 146.927 48.32 146.959 48.576C147.023 48.864 147.055 49.168 147.055 49.488C147.055 51.44 146.495 53.168 145.375 54.672C144.255 56.176 142.703 57.344 140.719 58.176C138.735 59.04 136.447 59.472 133.855 59.472H130.255C126.095 59.472 122.879 58.272 120.607 55.872C118.367 53.504 117.247 50.176 117.247 45.888V36.288H123.343V45.744C123.343 48.176 123.903 50 125.023 51.216C126.143 52.464 127.887 53.088 130.255 53.088H133.951C136.383 53.088 138.159 52.784 139.279 52.176C140.399 51.568 140.959 50.672 140.959 49.488C140.959 48.848 140.783 48.384 140.431 48.096C140.111 47.808 139.535 47.664 138.703 47.664H130.303L130.879 41.616ZM152.65 41.616C153.45 41.616 154.09 41.408 154.57 40.992C155.05 40.544 155.29 39.936 155.29 39.168V17.088H161.434V39.456C161.434 42.112 160.65 44.208 159.082 45.744C157.514 47.248 155.386 48 152.698 48H150.922C150.602 48 150.442 46.976 150.442 44.928C150.442 42.72 150.602 41.616 150.922 41.616H152.65ZM174.39 38.736C174.39 39.44 174.502 40 174.726 40.416C174.982 40.832 175.382 41.152 175.926 41.376C176.502 41.568 177.27 41.664 178.23 41.664H181.35V39.168C181.35 37.632 181.03 36.464 180.39 35.664C179.782 34.864 178.918 34.464 177.798 34.464C176.71 34.464 175.862 34.864 175.254 35.664C174.678 36.432 174.39 37.456 174.39 38.736ZM191.142 41.616C191.462 41.616 191.622 42.72 191.622 44.928C191.622 46.976 191.462 48 191.142 48H187.35C187.03 51.616 185.766 54.432 183.558 56.448C181.35 58.464 178.486 59.472 174.966 59.472H168.39L167.862 53.088H175.35C177.206 53.088 178.662 52.624 179.718 51.696C180.806 50.8 181.35 49.568 181.35 48H177.99C174.534 48 172.054 47.28 170.55 45.84C169.078 44.4 168.342 42.112 168.342 38.976C168.342 36.928 168.742 35.104 169.542 33.504C170.342 31.904 171.478 30.656 172.95 29.76C174.422 28.864 176.102 28.416 177.99 28.416C180.902 28.416 183.206 29.376 184.902 31.296C186.598 33.216 187.446 35.872 187.446 39.264V41.616H191.142ZM203.861 41.616C204.853 41.616 205.605 41.456 206.117 41.136C206.661 40.816 206.933 40.368 206.933 39.792C206.933 39.28 206.805 38.816 206.549 38.4C206.325 37.984 205.941 37.488 205.397 36.912L194.981 26.736V21.744L213.173 14.736L214.901 20.688L202.517 25.344L210.005 32.784C211.125 33.936 211.941 35.12 212.453 36.336C212.997 37.52 213.269 38.8 213.269 40.176C213.269 42.512 212.453 44.4 210.821 45.84C209.221 47.28 206.965 48 204.053 48H191.141C190.821 48 190.661 46.976 190.661 44.928C190.661 43.584 190.709 42.704 190.805 42.288C190.901 41.84 191.013 41.616 191.141 41.616H203.861Z" fill="#1D1D3D"/>
<path d="M65.6334 41.136L67.8522 44.4642C67.9018 44.4311 67.9507 44.3969 67.9988 44.3616L65.6334 41.136ZM65.7294 37.44L61.9346 38.7049C61.9489 38.7478 61.9639 38.7904 61.9797 38.8327L65.7294 37.44ZM62.6574 29.088L66.4005 27.6776L66.3965 27.6671L62.6574 29.088ZM61.3614 25.632L59.6464 22.0183C57.7825 22.9029 56.8971 25.06 57.6022 26.999L61.3614 25.632ZM67.0254 22.944L70.7913 21.5957C70.4104 20.532 69.5975 19.6789 68.5533 19.2473C67.5091 18.8157 66.3311 18.8459 65.3104 19.3303L67.0254 22.944ZM72.5934 38.496L68.8274 39.8443L68.8312 39.8546L72.5934 38.496ZM73.9374 40.944L71.109 43.7724C71.1414 43.8049 71.1745 43.8369 71.2081 43.8682L73.9374 40.944ZM77.4894 47.472L81.3484 48.5245C81.3559 48.4971 81.3631 48.4697 81.3699 48.4421L77.4894 47.472ZM72.0174 47.424L70.4269 51.0942C70.4754 51.1152 70.5242 51.1352 70.5734 51.1543L72.0174 47.424ZM69.7134 45.456L73.0781 43.293C72.3421 42.1481 71.0744 41.456 69.7134 41.456C68.3523 41.456 67.0847 42.1481 66.3487 43.293L69.7134 45.456ZM67.4094 47.424L68.9388 51.1201C68.9592 51.1116 68.9795 51.103 68.9998 51.0942L67.4094 47.424ZM52.9614 48L48.9726 48.2999C49.1295 50.3868 50.8686 52 52.9614 52V48ZM52.4814 41.616V37.616C51.3684 37.616 50.3057 38.0797 49.5488 38.8957C48.7919 39.7116 48.4092 40.8061 48.4926 41.9159L52.4814 41.616ZM63.7134 45.616C65.0079 45.616 66.5063 45.3615 67.8522 44.4642L63.4146 37.8078C63.6065 37.6798 63.7614 37.6309 63.8232 37.6154C63.8792 37.6014 63.853 37.616 63.7134 37.616V45.616ZM67.9988 44.3616C69.394 43.3385 70.3534 41.7433 70.3534 39.792H62.3534C62.3534 39.4526 62.4345 39.0447 62.6475 38.6471C62.854 38.2616 63.1081 38.0276 63.2679 37.9104L67.9988 44.3616ZM70.3534 39.792C70.3534 38.5275 69.8721 37.1055 69.4791 36.0473L61.9797 38.8327C62.1617 39.3229 62.2715 39.6689 62.3311 39.8937C62.3452 39.9467 62.3549 39.9872 62.3614 40.0163C62.368 40.0458 62.3703 40.0594 62.3702 40.0589C62.3701 40.0583 62.3692 40.053 62.3679 40.0432C62.3665 40.0334 62.3646 40.018 62.3626 39.9974C62.3588 39.9584 62.3534 39.8879 62.3534 39.792H70.3534ZM69.5241 36.1751C69.1103 34.9336 68.0548 32.068 66.4005 27.6776L58.9143 30.4984C60.5879 34.94 61.5805 37.6424 61.9346 38.7049L69.5241 36.1751ZM66.3965 27.6671C65.7889 26.0683 65.3659 24.9397 65.1205 24.265L57.6022 26.999C57.8689 27.7323 58.3098 28.9077 58.9182 30.5089L66.3965 27.6671ZM63.0764 29.2457L68.7404 26.5577L65.3104 19.3303L59.6464 22.0183L63.0764 29.2457ZM63.2595 24.2923L68.8275 39.8443L76.3593 37.1477L70.7913 21.5957L63.2595 24.2923ZM68.8312 39.8546C69.3113 41.1841 70.0022 42.6657 71.109 43.7724L76.7658 38.1156C76.8717 38.2215 76.852 38.237 76.7477 38.047C76.649 37.8673 76.5137 37.5754 76.3556 37.1374L68.8312 39.8546ZM71.2081 43.8682C72.6118 45.1783 74.3419 45.616 75.9054 45.616V37.616C75.8437 37.616 75.92 37.6073 76.082 37.6626C76.2579 37.7227 76.4711 37.8372 76.6666 38.0198L71.2081 43.8682ZM75.9054 45.616H77.1534V37.616H75.9054V45.616ZM77.1534 45.616C75.9127 45.616 74.9899 45.0409 74.4579 44.5165C73.988 44.0533 73.7719 43.5946 73.6951 43.4179C73.5404 43.062 73.5302 42.8486 73.5547 43.0177C73.592 43.275 73.6334 43.8685 73.6334 44.928H81.6334C81.6334 43.7795 81.5947 42.717 81.472 41.8703C81.4165 41.4874 81.3064 40.86 81.0317 40.2281C80.9122 39.9534 79.8898 37.616 77.1534 37.616V45.616ZM73.6334 44.928C73.6334 45.5444 73.6219 46.002 73.6038 46.3219C73.5948 46.4811 73.5855 46.5806 73.5794 46.6326C73.5715 46.7 73.5748 46.6379 73.6088 46.5019L81.3699 48.4421C81.6081 47.4894 81.6334 46.1181 81.6334 44.928H73.6334ZM73.6303 46.4195C73.6344 46.4046 73.6529 46.338 73.6927 46.2369C73.7294 46.1438 73.8106 45.9532 73.9587 45.7205C74.1604 45.4035 75.1513 44 77.1534 44V52C79.2834 52 80.3943 50.5085 80.708 50.0155C81.0826 49.4269 81.2613 48.8441 81.3484 48.5245L73.6303 46.4195ZM77.1534 44H75.6174V52H77.1534V44ZM75.6174 44C74.5523 44 73.8704 43.8521 73.4614 43.6937L70.5734 51.1543C72.1484 51.7639 73.8665 52 75.6174 52V44ZM73.6078 43.7538C73.3895 43.6592 73.2334 43.5346 73.0781 43.293L66.3487 47.619C67.3453 49.1694 68.7253 50.3568 70.4269 51.0942L73.6078 43.7538ZM66.3487 43.293C66.1933 43.5346 66.0373 43.6592 65.8189 43.7538L68.9998 51.0942C70.7015 50.3568 72.0814 49.1694 73.0781 47.619L66.3487 43.293ZM65.88 43.7279C65.5899 43.8479 64.9844 44 63.9054 44V52C65.6423 52 67.3728 51.7681 68.9388 51.1201L65.88 43.7279ZM63.9054 44H52.9614V52H63.9054V44ZM56.9501 47.7001L56.4701 41.3161L48.4926 41.9159L48.9726 48.2999L56.9501 47.7001ZM52.4814 45.616H63.7134V37.616H52.4814V45.616ZM92.1635 41.136L90.1354 37.6883C90.1045 37.7064 90.0739 37.725 90.0435 37.744L92.1635 41.136ZM92.5955 38.4L89.0736 40.2964C89.1101 40.3642 89.1485 40.4309 89.1889 40.4964L92.5955 38.4ZM91.4435 36.912L94.3516 34.1655C94.3147 34.1265 94.2771 34.0883 94.2388 34.0508L91.4435 36.912ZM81.0275 26.736H77.0275C77.0275 27.813 77.4618 28.8445 78.2322 29.5972L81.0275 26.736ZM81.0275 21.744L79.5896 18.0114C78.0459 18.6061 77.0275 20.0897 77.0275 21.744H81.0275ZM99.2195 14.736L103.061 13.6208C102.749 12.5452 102 11.6498 100.996 11.1523C99.9928 10.6548 98.8267 10.6008 97.7816 11.0034L99.2195 14.736ZM100.948 20.688L102.355 24.4321C104.311 23.6967 105.372 21.5796 104.789 19.5728L100.948 20.688ZM88.5635 25.344L87.1558 21.5999C85.8813 22.0791 84.938 23.1738 84.6524 24.5051C84.3669 25.8365 84.7782 27.2218 85.7442 28.1815L88.5635 25.344ZM96.0515 32.784L98.9195 29.9957C98.9034 29.9791 98.8872 29.9627 98.8708 29.9465L96.0515 32.784ZM98.4995 36.336L94.813 37.8882C94.8296 37.9278 94.8469 37.967 94.8648 38.006L98.4995 36.336ZM96.8675 45.84L94.221 42.8406C94.2112 42.8493 94.2014 42.8581 94.1916 42.8668L96.8675 45.84ZM76.8515 42.288L80.7491 43.1874C80.7538 43.167 80.7583 43.1466 80.7627 43.1261L76.8515 42.288ZM89.9075 45.616C91.2161 45.616 92.8481 45.4251 94.2835 44.528L90.0435 37.744C90.1614 37.6703 90.2569 37.6284 90.3145 37.6066C90.3715 37.5849 90.3977 37.5805 90.3831 37.5836C90.3686 37.5866 90.3232 37.5952 90.2411 37.6027C90.1592 37.6102 90.0492 37.616 89.9075 37.616V45.616ZM94.1916 44.5837C95.8159 43.6283 96.9795 41.9423 96.9795 39.792H88.9795C88.9795 39.4227 89.0754 38.9469 89.3564 38.4841C89.627 38.0383 89.9532 37.7955 90.1354 37.6883L94.1916 44.5837ZM96.9795 39.792C96.9795 38.5771 96.6652 37.3811 96.0021 36.3036L89.1889 40.4964C89.1221 40.3879 89.0654 40.2608 89.0275 40.1237C88.9901 39.9879 88.9795 39.8726 88.9795 39.792H96.9795ZM96.1174 36.5036C95.6525 35.6403 94.9976 34.8495 94.3516 34.1655L88.5354 39.6585C88.7398 39.8749 88.8822 40.0427 88.9766 40.1647C89.0747 40.2914 89.0933 40.333 89.0736 40.2964L96.1174 36.5036ZM94.2388 34.0508L83.8228 23.8748L78.2322 29.5972L88.6482 39.7732L94.2388 34.0508ZM85.0275 26.736V21.744H77.0275V26.736H85.0275ZM82.4654 25.4766L100.657 18.4686L97.7816 11.0034L79.5896 18.0114L82.4654 25.4766ZM95.3781 15.8512L97.1061 21.8032L104.789 19.5728L103.061 13.6208L95.3781 15.8512ZM99.5398 16.9439L87.1558 21.5999L89.9712 29.0881L102.355 24.4321L99.5398 16.9439ZM85.7442 28.1815L93.2322 35.6215L98.8708 29.9465L91.3828 22.5065L85.7442 28.1815ZM93.1835 35.5723C94.0295 36.4425 94.5315 37.2197 94.813 37.8882L102.186 34.7838C101.444 33.0203 100.313 31.4295 98.9195 29.9957L93.1835 35.5723ZM94.8648 38.006C95.1547 38.637 95.3155 39.3435 95.3155 40.176H103.316C103.316 38.2565 102.932 36.403 102.134 34.666L94.8648 38.006ZM95.3155 40.176C95.3155 41.4593 94.9237 42.2206 94.221 42.8406L99.514 48.8394C102.075 46.5794 103.316 43.5647 103.316 40.176H95.3155ZM94.1916 42.8668C93.5518 43.4427 92.3761 44 90.0995 44V52C93.6469 52 96.9832 51.1173 99.5434 48.8132L94.1916 42.8668ZM90.0995 44H77.1875V52H90.0995V44ZM77.1875 44C78.327 44 79.2168 44.4904 79.7741 44.9999C80.2672 45.4507 80.5059 45.9109 80.5993 46.1103C80.7817 46.4992 80.8011 46.7524 80.7795 46.6145C80.749 46.4193 80.7075 45.9038 80.7075 44.928H72.7075C72.7075 46.0002 72.746 47.0207 72.8755 47.8495C72.9339 48.2236 73.0533 48.8608 73.3557 49.5057C73.5447 49.9091 74.61 52 77.1875 52V44ZM80.7075 44.928C80.7075 44.2953 80.719 43.8183 80.7376 43.4779C80.7468 43.3086 80.7566 43.1957 80.764 43.1287C80.7728 43.0496 80.7729 43.084 80.7491 43.1874L72.9539 41.3886C72.7372 42.3278 72.7075 43.6791 72.7075 44.928H80.7075ZM80.7627 43.1261C80.7881 43.0077 80.7563 43.2306 80.5852 43.5729C80.5004 43.7424 80.2748 44.1612 79.8238 44.5822C79.3299 45.0432 78.4306 45.616 77.1875 45.616V37.616C75.8804 37.616 74.9191 38.2168 74.3652 38.7338C73.8542 39.2108 73.5706 39.7136 73.4298 39.9951C73.1467 40.5614 73.0109 41.1203 72.9403 41.4499L80.7627 43.1261ZM77.1875 45.616H89.9075V37.616H77.1875V45.616ZM130.879 41.616V37.616C128.817 37.616 127.093 39.1838 126.897 41.2368L130.879 41.616ZM146.719 48V44C145.101 44 143.643 44.9746 143.024 46.4693C142.405 47.964 142.747 49.6844 143.891 50.8284L146.719 48ZM146.959 48.576L142.99 49.0721C143.006 49.1969 143.027 49.3209 143.055 49.4437L146.959 48.576ZM145.375 54.672L148.583 57.0611L148.583 57.0611L145.375 54.672ZM140.719 58.176L139.172 54.4872C139.156 54.4943 139.139 54.5014 139.122 54.5087L140.719 58.176ZM120.607 55.872L117.701 58.6208L117.702 58.6219L120.607 55.872ZM117.247 36.288V32.288C115.038 32.288 113.247 34.0789 113.247 36.288H117.247ZM123.343 36.288H127.343C127.343 34.0789 125.552 32.288 123.343 32.288V36.288ZM125.023 51.216L128 48.5444C127.989 48.5315 127.977 48.5188 127.965 48.5061L125.023 51.216ZM139.279 52.176L137.371 48.6606L137.371 48.6606L139.279 52.176ZM140.431 48.096L137.755 51.0692C137.802 51.1112 137.85 51.1521 137.898 51.1918L140.431 48.096ZM130.303 47.664L126.321 47.2848C126.214 48.4065 126.586 49.5213 127.344 50.355C128.102 51.1887 129.176 51.664 130.303 51.664V47.664ZM130.879 45.616H150.943V37.616H130.879V45.616ZM150.943 45.616C149.703 45.616 148.78 45.0409 148.248 44.5165C147.778 44.0533 147.562 43.5946 147.485 43.4179C147.33 43.062 147.32 42.8486 147.345 43.0177C147.382 43.275 147.423 43.8685 147.423 44.928H155.423C155.423 43.7795 155.385 42.717 155.262 41.8703C155.206 41.4874 155.096 40.86 154.822 40.2281C154.702 39.9534 153.68 37.616 150.943 37.616V45.616ZM147.423 44.928C147.423 45.9038 147.382 46.4193 147.351 46.6145C147.33 46.7524 147.349 46.4992 147.531 46.1103C147.625 45.9109 147.864 45.4507 148.357 44.9999C148.914 44.4904 149.804 44 150.943 44V52C153.521 52 154.586 49.9091 154.775 49.5057C155.077 48.8608 155.197 48.2236 155.255 47.8495C155.385 47.0207 155.423 46.0002 155.423 44.928H147.423ZM150.943 44H146.719V52H150.943V44ZM143.891 50.8284C143.171 50.109 143.023 49.3334 142.99 49.0721L150.928 48.0799C150.832 47.3066 150.523 46.147 149.548 45.1716L143.891 50.8284ZM143.055 49.4437C143.05 49.4239 143.055 49.4354 143.055 49.488H151.055C151.055 48.9006 150.996 48.3041 150.864 47.7083L143.055 49.4437ZM143.055 49.488C143.055 50.6169 142.751 51.499 142.167 52.2829L148.583 57.0611C150.24 54.837 151.055 52.2631 151.055 49.488H143.055ZM142.167 52.2829C141.534 53.1326 140.595 53.8906 139.172 54.4872L142.266 61.8648C144.811 60.7974 146.976 59.2194 148.583 57.0611L142.167 52.2829ZM139.122 54.5087C137.731 55.1143 136.004 55.472 133.855 55.472V63.472C136.89 63.472 139.739 62.9657 142.316 61.8433L139.122 54.5087ZM133.855 55.472H130.255V63.472H133.855V55.472ZM130.255 55.472C126.892 55.472 124.843 54.5283 123.512 53.1221L117.702 58.6219C120.915 62.0157 125.299 63.472 130.255 63.472V55.472ZM123.513 53.1232C122.175 51.7084 121.247 49.4856 121.247 45.888H113.247C113.247 50.8664 114.56 55.2996 117.701 58.6208L123.513 53.1232ZM121.247 45.888V36.288H113.247V45.888H121.247ZM117.247 40.288H123.343V32.288H117.247V40.288ZM119.343 36.288V45.744H127.343V36.288H119.343ZM119.343 45.744C119.343 48.7147 120.02 51.6886 122.081 53.9259L127.965 48.5061C127.786 48.3114 127.343 47.6373 127.343 45.744H119.343ZM122.046 53.8876C124.196 56.2833 127.233 57.088 130.255 57.088V49.088C128.541 49.088 128.09 48.6447 128 48.5444L122.046 53.8876ZM130.255 57.088H133.951V49.088H130.255V57.088ZM133.951 57.088C136.547 57.088 139.159 56.7926 141.188 55.6914L137.371 48.6606C137.159 48.7754 136.22 49.088 133.951 49.088V57.088ZM141.188 55.6914C142.23 55.1258 143.217 54.311 143.931 53.168C144.655 52.0097 144.959 50.7366 144.959 49.488H136.959C136.959 49.4673 136.962 49.3929 136.992 49.2821C137.022 49.1683 137.074 49.0453 137.147 48.928C137.302 48.681 137.449 48.6182 137.371 48.6606L141.188 55.6914ZM144.959 49.488C144.959 48.1597 144.579 46.3213 142.964 45.0002L137.898 51.1918C137.483 50.8523 137.224 50.4403 137.087 50.0786C136.962 49.7473 136.959 49.5191 136.959 49.488H144.959ZM143.107 45.1228C141.62 43.7842 139.722 43.664 138.703 43.664V51.664C138.912 51.664 138.917 51.6845 138.789 51.6526C138.671 51.6231 138.23 51.4966 137.755 51.0692L143.107 45.1228ZM138.703 43.664H130.303V51.664H138.703V43.664ZM134.285 48.0432L134.861 41.9952L126.897 41.2368L126.321 47.2848L134.285 48.0432ZM154.57 40.992L157.19 44.0148C157.227 43.9826 157.263 43.9497 157.299 43.9162L154.57 40.992ZM155.29 17.088V13.088C153.081 13.088 151.29 14.8789 151.29 17.088H155.29ZM161.434 17.088H165.434C165.434 14.8789 163.643 13.088 161.434 13.088V17.088ZM159.082 45.744L161.851 48.6307C161.861 48.621 161.871 48.6113 161.881 48.6014L159.082 45.744ZM152.65 45.616C154.155 45.616 155.809 45.2114 157.19 44.0148L151.95 37.9692C152.138 37.8064 152.336 37.7072 152.494 37.6559C152.64 37.6083 152.707 37.616 152.65 37.616V45.616ZM157.299 43.9162C158.728 42.5822 159.29 40.8395 159.29 39.168H151.29C151.29 39.1356 151.295 38.9691 151.389 38.7313C151.488 38.48 151.648 38.2474 151.841 38.0678L157.299 43.9162ZM159.29 39.168V17.088H151.29V39.168H159.29ZM155.29 21.088H161.434V13.088H155.29V21.088ZM157.434 17.088V39.456H165.434V17.088H157.434ZM157.434 39.456C157.434 41.2787 156.926 42.2568 156.283 42.8866L161.881 48.6014C164.374 46.1592 165.434 42.9453 165.434 39.456H157.434ZM156.313 42.8573C155.657 43.4864 154.612 44 152.698 44V52C156.16 52 159.371 51.0096 161.851 48.6307L156.313 42.8573ZM152.698 44H150.922V52H152.698V44ZM150.922 44C152.061 44 152.951 44.4904 153.508 44.9999C154.002 45.4507 154.24 45.9109 154.334 46.1103C154.516 46.4992 154.535 46.7524 154.514 46.6145C154.483 46.4193 154.442 45.9038 154.442 44.928H146.442C146.442 46.0002 146.48 47.0207 146.61 47.8495C146.668 48.2236 146.788 48.8608 147.09 49.5057C147.279 49.9091 148.344 52 150.922 52V44ZM154.442 44.928C154.442 43.8685 154.483 43.275 154.521 43.0177C154.545 42.8486 154.535 43.062 154.38 43.4179C154.303 43.5946 154.087 44.0533 153.617 44.5165C153.085 45.0409 152.163 45.616 150.922 45.616V37.616C148.185 37.616 147.163 39.9534 147.044 40.2281C146.769 40.86 146.659 41.4874 146.603 41.8703C146.481 42.717 146.442 43.7795 146.442 44.928H154.442ZM150.922 45.616H152.65V37.616H150.922V45.616ZM174.726 40.416L171.204 42.3124C171.241 42.3802 171.279 42.4468 171.319 42.5124L174.726 40.416ZM175.926 41.376L174.403 45.0747C174.488 45.1097 174.574 45.1417 174.661 45.1707L175.926 41.376ZM181.35 41.664V45.664C183.559 45.664 185.35 43.8731 185.35 41.664H181.35ZM180.39 35.664L177.205 38.0843C177.226 38.1107 177.246 38.1369 177.267 38.1628L180.39 35.664ZM175.254 35.664L172.069 33.2437C172.064 33.2504 172.059 33.2572 172.054 33.264L175.254 35.664ZM187.35 48V44C185.278 44 183.548 45.583 183.366 47.6474L187.35 48ZM183.558 56.448L186.255 59.4019L186.255 59.4019L183.558 56.448ZM168.39 59.472L164.404 59.8017C164.575 61.8759 166.309 63.472 168.39 63.472V59.472ZM167.862 53.088V49.088C166.744 49.088 165.677 49.556 164.919 50.3786C164.162 51.2013 163.784 52.3033 163.876 53.4177L167.862 53.088ZM179.718 51.696L177.175 48.6083C177.142 48.6354 177.11 48.6631 177.078 48.6913L179.718 51.696ZM181.35 48H185.35C185.35 45.7909 183.559 44 181.35 44V48ZM170.55 45.84L167.753 48.6993C167.763 48.7094 167.773 48.7193 167.784 48.7292L170.55 45.84ZM169.542 33.504L165.964 31.7151L165.964 31.7151L169.542 33.504ZM172.95 29.76L170.87 26.3432L170.87 26.3432L172.95 29.76ZM187.446 41.616H183.446C183.446 43.8251 185.237 45.616 187.446 45.616V41.616ZM170.39 38.736C170.39 39.8026 170.55 41.0972 171.204 42.3124L178.248 38.5196C178.358 38.7242 178.39 38.8693 178.396 38.8995C178.402 38.9292 178.39 38.8828 178.39 38.736H170.39ZM171.319 42.5124C172.103 43.7853 173.241 44.5963 174.403 45.0747L177.449 37.6773C177.477 37.6888 177.58 37.7353 177.717 37.8445C177.859 37.9579 178.008 38.1167 178.133 38.3196L171.319 42.5124ZM174.661 45.1707C175.811 45.5541 177.06 45.664 178.23 45.664V37.664C177.878 37.664 177.616 37.6461 177.43 37.6229C177.24 37.5991 177.172 37.5749 177.191 37.5813L174.661 45.1707ZM178.23 45.664H181.35V37.664H178.23V45.664ZM185.35 41.664V39.168H177.35V41.664H185.35ZM185.35 39.168C185.35 37.1582 184.943 34.9522 183.514 33.1652L177.267 38.1628C177.19 38.067 177.21 38.0443 177.252 38.1969C177.297 38.3589 177.35 38.6664 177.35 39.168H185.35ZM183.575 33.2437C182.116 31.3245 180.004 30.464 177.798 30.464V38.464C177.879 38.464 177.785 38.477 177.606 38.3939C177.519 38.3538 177.434 38.3011 177.359 38.2393C177.284 38.1782 177.234 38.1216 177.205 38.0843L183.575 33.2437ZM177.798 30.464C175.58 30.464 173.503 31.3568 172.069 33.2437L178.439 38.0843C178.382 38.1589 178.252 38.2878 178.053 38.3817C177.864 38.4708 177.75 38.464 177.798 38.464V30.464ZM172.054 33.264C170.81 34.923 170.39 36.877 170.39 38.736H178.39C178.39 38.035 178.546 37.941 178.454 38.064L172.054 33.264ZM191.142 45.616C189.901 45.616 188.979 45.0409 188.447 44.5165C187.977 44.0533 187.761 43.5946 187.684 43.4179C187.529 43.062 187.519 42.8486 187.543 43.0177C187.581 43.275 187.622 43.8685 187.622 44.928H195.622C195.622 43.7795 195.583 42.717 195.461 41.8703C195.405 41.4874 195.295 40.86 195.02 40.2281C194.901 39.9534 193.879 37.616 191.142 37.616V45.616ZM187.622 44.928C187.622 45.9038 187.581 46.4193 187.55 46.6145C187.529 46.7524 187.548 46.4992 187.73 46.1103C187.824 45.9109 188.062 45.4507 188.556 44.9999C189.113 44.4904 190.003 44 191.142 44V52C193.72 52 194.785 49.9091 194.974 49.5057C195.276 48.8608 195.396 48.2236 195.454 47.8495C195.584 47.0207 195.622 46.0002 195.622 44.928H187.622ZM191.142 44H187.35V52H191.142V44ZM183.366 47.6474C183.114 50.4906 182.178 52.2916 180.861 53.4941L186.255 59.4019C189.354 56.5724 190.946 52.7414 191.335 48.3526L183.366 47.6474ZM180.861 53.4941C179.518 54.7203 177.676 55.472 174.966 55.472V63.472C179.296 63.472 183.182 62.2077 186.255 59.4019L180.861 53.4941ZM174.966 55.472H168.39V63.472H174.966V55.472ZM172.377 59.1423L171.849 52.7583L163.876 53.4177L164.404 59.8017L172.377 59.1423ZM167.862 57.088H175.35V49.088H167.862V57.088ZM175.35 57.088C177.861 57.088 180.365 56.4522 182.359 54.7007L177.078 48.6913C176.959 48.7958 176.551 49.088 175.35 49.088V57.088ZM182.261 54.7837C184.383 53.0362 185.35 50.6112 185.35 48H177.35C177.35 48.3182 177.296 48.4541 177.283 48.4843C177.275 48.5025 177.261 48.5381 177.175 48.6083L182.261 54.7837ZM181.35 44H177.99V52H181.35V44ZM177.99 44C174.925 44 173.715 43.3327 173.316 42.9508L167.784 48.7292C170.393 51.2273 174.143 52 177.99 52V44ZM173.347 42.9807C172.967 42.6083 172.342 41.5904 172.342 38.976H164.342C164.342 42.6336 165.19 46.1917 167.753 48.6993L173.347 42.9807ZM172.342 38.976C172.342 37.4587 172.635 36.2619 173.12 35.2929L165.964 31.7151C164.849 33.9461 164.342 36.3973 164.342 38.976H172.342ZM173.12 35.2929C173.597 34.3386 174.226 33.6664 175.03 33.1768L170.87 26.3432C168.731 27.6456 167.087 29.4694 165.964 31.7151L173.12 35.2929ZM175.03 33.1768C175.816 32.6982 176.763 32.416 177.99 32.416V24.416C175.441 24.416 173.028 25.0298 170.87 26.3432L175.03 33.1768ZM177.99 32.416C179.929 32.416 181.076 33.0061 181.904 33.9441L187.9 28.6479C185.337 25.7459 181.875 24.416 177.99 24.416V32.416ZM181.904 33.9441C182.769 34.9236 183.446 36.5259 183.446 39.264H191.446C191.446 35.218 190.427 31.5084 187.9 28.6479L181.904 33.9441ZM183.446 39.264V41.616H191.446V39.264H183.446ZM187.446 45.616H191.142V37.616H187.446V45.616ZM206.117 41.136L204.089 37.6883C204.058 37.7064 204.027 37.725 203.997 37.744L206.117 41.136ZM206.549 38.4L203.027 40.2964C203.063 40.3642 203.102 40.4309 203.142 40.4964L206.549 38.4ZM205.397 36.912L208.305 34.1655C208.268 34.1265 208.23 34.0883 208.192 34.0508L205.397 36.912ZM194.981 26.736H190.981C190.981 27.813 191.415 28.8445 192.185 29.5972L194.981 26.736ZM194.981 21.744L193.543 18.0114C191.999 18.6061 190.981 20.0897 190.981 21.744H194.981ZM213.173 14.736L217.014 13.6208C216.702 12.5452 215.953 11.6498 214.949 11.1523C213.946 10.6548 212.78 10.6008 211.735 11.0034L213.173 14.736ZM214.901 20.688L216.308 24.4321C218.264 23.6967 219.325 21.5796 218.742 19.5728L214.901 20.688ZM202.517 25.344L201.109 21.5999C199.834 22.0791 198.891 23.1738 198.606 24.5051C198.32 25.8365 198.731 27.2218 199.697 28.1815L202.517 25.344ZM210.005 32.784L212.873 29.9957C212.857 29.9791 212.84 29.9627 212.824 29.9465L210.005 32.784ZM212.453 36.336L208.766 37.8882C208.783 37.9278 208.8 37.967 208.818 38.006L212.453 36.336ZM210.821 45.84L208.174 42.8406C208.164 42.8493 208.155 42.8581 208.145 42.8668L210.821 45.84ZM190.805 42.288L194.702 43.1874C194.707 43.167 194.711 43.1466 194.716 43.1261L190.805 42.288ZM203.861 45.616C205.169 45.616 206.801 45.4251 208.237 44.528L203.997 37.744C204.115 37.6703 204.21 37.6284 204.268 37.6066C204.325 37.5849 204.351 37.5805 204.336 37.5836C204.322 37.5866 204.276 37.5952 204.194 37.6027C204.112 37.6102 204.002 37.616 203.861 37.616V45.616ZM208.145 44.5837C209.769 43.6283 210.933 41.9423 210.933 39.792H202.933C202.933 39.4227 203.029 38.9469 203.309 38.4841C203.58 38.0383 203.906 37.7955 204.089 37.6883L208.145 44.5837ZM210.933 39.792C210.933 38.5771 210.618 37.3811 209.955 36.3036L203.142 40.4964C203.075 40.3879 203.018 40.2608 202.981 40.1237C202.943 39.9879 202.933 39.8726 202.933 39.792H210.933ZM210.071 36.5036C209.606 35.6403 208.951 34.8495 208.305 34.1655L202.489 39.6585C202.693 39.8749 202.835 40.0427 202.93 40.1647C203.028 40.2914 203.046 40.333 203.027 40.2964L210.071 36.5036ZM208.192 34.0508L197.776 23.8748L192.185 29.5972L202.601 39.7732L208.192 34.0508ZM198.981 26.736V21.744H190.981V26.736H198.981ZM196.419 25.4766L214.611 18.4686L211.735 11.0034L193.543 18.0114L196.419 25.4766ZM209.331 15.8512L211.059 21.8032L218.742 19.5728L217.014 13.6208L209.331 15.8512ZM213.493 16.9439L201.109 21.5999L203.924 29.0881L216.308 24.4321L213.493 16.9439ZM199.697 28.1815L207.185 35.6215L212.824 29.9465L205.336 22.5065L199.697 28.1815ZM207.137 35.5723C207.983 36.4425 208.485 37.2197 208.766 37.8882L216.139 34.7838C215.397 33.0203 214.267 31.4295 212.873 29.9957L207.137 35.5723ZM208.818 38.006C209.108 38.637 209.269 39.3435 209.269 40.176H217.269C217.269 38.2565 216.885 36.403 216.087 34.666L208.818 38.006ZM209.269 40.176C209.269 41.4593 208.877 42.2206 208.174 42.8406L213.467 48.8394C216.028 46.5794 217.269 43.5647 217.269 40.176H209.269ZM208.145 42.8668C207.505 43.4427 206.329 44 204.053 44V52C207.6 52 210.936 51.1173 213.496 48.8132L208.145 42.8668ZM204.053 44H191.141V52H204.053V44ZM191.141 44C192.28 44 193.17 44.4904 193.727 44.9999C194.22 45.4507 194.459 45.9109 194.552 46.1103C194.735 46.4992 194.754 46.7524 194.733 46.6145C194.702 46.4193 194.661 45.9038 194.661 44.928H186.661C186.661 46.0002 186.699 47.0207 186.829 47.8495C186.887 48.2236 187.006 48.8608 187.309 49.5057C187.498 49.9091 188.563 52 191.141 52V44ZM194.661 44.928C194.661 44.2953 194.672 43.8183 194.691 43.4779C194.7 43.3086 194.71 43.1957 194.717 43.1287C194.726 43.0496 194.726 43.084 194.702 43.1874L186.907 41.3886C186.69 42.3278 186.661 43.6791 186.661 44.928H194.661ZM194.716 43.1261C194.741 43.0077 194.709 43.2306 194.538 43.5729C194.454 43.7424 194.228 44.1612 193.777 44.5822C193.283 45.0432 192.384 45.616 191.141 45.616V37.616C189.833 37.616 188.872 38.2168 188.318 38.7338C187.807 39.2108 187.524 39.7136 187.383 39.9951C187.1 40.5614 186.964 41.1203 186.893 41.4499L194.716 43.1261ZM191.141 45.616H203.861V37.616H191.141V45.616Z" fill="white" mask="url(#path-1-outside-1_1048_12335)"/>
</svg>
