<svg width="48" height="49" viewBox="0 0 48 49" fill="none" xmlns="http://www.w3.org/2000/svg">
<path d="M36.2521 29.0377C32.9158 29.0377 30.2017 31.7519 30.2017 35.0882C30.2017 38.4244 32.9158 41.1386 36.2521 41.1386C39.5889 41.1386 42.3025 38.4244 42.3025 35.0882C42.3025 31.7519 39.5884 29.0377 36.2521 29.0377ZM36.2521 38.1134C34.5837 38.1134 33.2269 36.7565 33.2269 35.0882C33.2269 33.4198 34.5837 32.0629 36.2521 32.0629C37.9205 32.0629 39.2773 33.4198 39.2773 35.0882C39.2773 36.7566 37.9205 38.1134 36.2521 38.1134Z" fill="white"/>
<path d="M15.5798 29.0377C12.2436 29.0377 9.5294 31.7519 9.5294 35.0882C9.5294 38.4244 12.2436 41.1386 15.5798 41.1386C18.9161 41.1386 21.6303 38.4244 21.6303 35.0882C21.6303 31.7519 18.9161 29.0377 15.5798 29.0377ZM15.5798 38.1134C13.9115 38.1134 12.5546 36.7565 12.5546 35.0882C12.5546 33.4198 13.9115 32.0629 15.5798 32.0629C17.2477 32.0629 18.6051 33.4198 18.6051 35.0882C18.6051 36.7566 17.2482 38.1134 15.5798 38.1134Z" fill="white"/>
<path d="M40.3266 11.7196C40.0694 11.2088 39.5466 10.8866 38.9748 10.8866H31.0084V13.9118H38.042L42.1608 22.1041L44.8643 20.7447L40.3266 11.7196Z" fill="white"/>
<path d="M31.7143 33.6261H20.2689V36.6513H31.7143V33.6261Z" fill="white"/>
<path d="M11.042 33.6261H5.79834C4.96284 33.6261 4.28578 34.3033 4.28578 35.1387C4.28578 35.9742 4.96294 36.6512 5.79834 36.6512H11.0421C11.8776 36.6512 12.5546 35.9741 12.5546 35.1387C12.5546 34.3032 11.8775 33.6261 11.042 33.6261Z" fill="white"/>
<path d="M47.6824 24.379L44.7071 20.547C44.4213 20.1779 43.9801 19.9621 43.5127 19.9621H32.521V9.37389C32.521 8.53839 31.8439 7.86133 31.0085 7.86133H5.79834C4.96284 7.86133 4.28578 8.53848 4.28578 9.37389C4.28578 10.2093 4.96294 10.8865 5.79834 10.8865H29.4958V21.4747C29.4958 22.3102 30.173 22.9872 31.0084 22.9872H42.7719L44.9748 25.8249V33.6259H40.7899C39.9544 33.6259 39.2773 34.303 39.2773 35.1385C39.2773 35.974 39.9545 36.651 40.7899 36.651H46.4873C47.3228 36.651 47.9999 35.9739 48 35.1385V25.3067C48 24.9709 47.8881 24.6442 47.6824 24.379Z" fill="white"/>
<path d="M10.9412 25.9622H3.98316C3.14766 25.9622 2.4706 26.6393 2.4706 27.4747C2.4706 28.3102 3.14775 28.9873 3.98316 28.9873H10.9411C11.7766 28.9873 12.4537 28.3101 12.4537 27.4747C12.4538 26.6393 11.7766 25.9622 10.9412 25.9622Z" fill="#FF3F3F"/>
<path d="M14.4202 20.0126H1.51256C0.677156 20.0126 0 20.6897 0 21.5252C0 22.3607 0.677156 23.0378 1.51256 23.0378H14.4202C15.2557 23.0378 15.9327 22.3606 15.9327 21.5252C15.9327 20.6898 15.2557 20.0126 14.4202 20.0126Z" fill="#FF3F3F"/>
<path d="M16.8908 14.063H3.98316C3.14766 14.063 2.4706 14.7401 2.4706 15.5756C2.4706 16.4111 3.14775 17.0881 3.98316 17.0881H16.8908C17.7263 17.0881 18.4033 16.411 18.4033 15.5756C18.4034 14.7401 17.7263 14.063 16.8908 14.063Z" fill="#FF3F3F"/>
</svg>
