<svg width="48" height="49" viewBox="0 0 48 49" fill="none" xmlns="http://www.w3.org/2000/svg">
<path d="M27.9521 10.4449C28.8789 9.4676 29.4492 8.14917 29.4492 6.69922C29.4492 3.69452 27.0047 1.25 24 1.25C20.9953 1.25 18.5508 3.69452 18.5508 6.69922C18.5508 8.14917 19.1211 9.4676 20.0479 10.4449C17.5327 11.8403 15.8262 14.5232 15.8262 17.5977V24.4092H32.1738V17.5977C32.1738 14.5232 30.4673 11.8403 27.9521 10.4449ZM21.2754 6.69922C21.2754 5.19687 22.4977 3.97461 24 3.97461C25.5023 3.97461 26.7246 5.19687 26.7246 6.69922C26.7246 8.20157 25.5023 9.42383 24 9.42383C22.4977 9.42383 21.2754 8.20157 21.2754 6.69922ZM29.4492 21.6846H18.5508V17.5977C18.5508 14.593 20.9953 12.1484 24 12.1484C27.0047 12.1484 29.4492 14.593 29.4492 17.5977V21.6846Z" fill="white"/>
<path d="M11.3705 33.9319C12.3816 32.942 13.0107 31.5634 13.0107 30.04C13.0107 27.0353 10.5662 24.5908 7.56152 24.5908C4.55682 24.5908 2.1123 27.0353 2.1123 30.04C2.1123 31.5634 2.74142 32.942 3.75252 33.9319C1.9422 35.1574 0.75 37.2302 0.75 39.5762V47.75H14.373V39.5762C14.373 37.2302 13.1808 35.1574 11.3705 33.9319ZM4.83691 30.04C4.83691 28.5377 6.05917 27.3154 7.56152 27.3154C9.06387 27.3154 10.2861 28.5377 10.2861 30.04C10.2861 31.5424 9.06387 32.7646 7.56152 32.7646C6.05917 32.7646 4.83691 31.5424 4.83691 30.04ZM11.6484 45.0254H3.47461V39.5762C3.47461 37.3226 5.308 35.4893 7.56152 35.4893C9.81505 35.4893 11.6484 37.3226 11.6484 39.5762V45.0254Z" fill="white"/>
<path d="M44.2475 33.9319C45.2586 32.942 45.8877 31.5634 45.8877 30.04C45.8877 27.0353 43.4432 24.5908 40.4385 24.5908C37.4338 24.5908 34.9893 27.0353 34.9893 30.04C34.9893 31.5634 35.6184 32.942 36.6295 33.9319C34.8192 35.1574 33.627 37.2302 33.627 39.5762V47.75H47.25V39.5762C47.25 37.2302 46.0578 35.1574 44.2475 33.9319ZM37.7139 30.04C37.7139 28.5377 38.9361 27.3154 40.4385 27.3154C41.9408 27.3154 43.1631 28.5377 43.1631 30.04C43.1631 31.5424 41.9408 32.7646 40.4385 32.7646C38.9361 32.7646 37.7139 31.5424 37.7139 30.04ZM44.5254 45.0254H36.3516V39.5762C36.3516 37.3226 38.185 35.4893 40.4385 35.4893C42.692 35.4893 44.5254 37.3226 44.5254 39.5762V45.0254Z" fill="white"/>
<path d="M22.0736 26.5575L16.7755 31.8556L22.0736 37.1537L24.0002 35.2271L21.991 33.2179H29.6005V30.4933H21.991L24.0002 28.4841L22.0736 26.5575Z" fill="#FF3F3F"/>
<path d="M24.0007 39.0799L26.01 41.0892H18.4004V43.8138H26.01L24.0007 45.823L25.9273 47.7496L31.2254 42.4515L25.9273 37.1533L24.0007 39.0799Z" fill="#FF3F3F"/>
</svg>
