<svg width="20" height="21" viewBox="0 0 20 21" fill="none" xmlns="http://www.w3.org/2000/svg">
<path fill-rule="evenodd" clip-rule="evenodd" d="M13.15 3.20312H6.85C5.69631 3.20312 4.58987 3.66143 3.77409 4.47721C2.9583 5.29299 2.5 6.39943 2.5 7.55313V13.8531C2.5 16.2531 4.45 18.2031 6.85 18.2031H13.15C14.3037 18.2031 15.4101 17.7448 16.2259 16.929C17.0417 16.1133 17.5 15.0068 17.5 13.8531V7.55313C17.5 5.15313 15.55 3.20312 13.15 3.20312ZM14.6004 6.10271C14.4246 5.9269 14.1861 5.82812 13.9375 5.82812C13.6889 5.82812 13.4504 5.9269 13.2746 6.10271C13.0988 6.27853 13 6.51698 13 6.76562C13 7.01427 13.0988 7.25272 13.2746 7.42854C13.4504 7.60435 13.6889 7.70312 13.9375 7.70312C14.1861 7.70312 14.4246 7.60435 14.6004 7.42854C14.7762 7.25272 14.875 7.01427 14.875 6.76562C14.875 6.51698 14.7762 6.27853 14.6004 6.10271ZM12.6517 8.05147C11.9484 7.34821 10.9946 6.95312 10 6.95312C9.00544 6.95312 8.05161 7.34821 7.34835 8.05147C6.64509 8.75474 6.25 9.70856 6.25 10.7031C6.25 11.6977 6.64509 12.6515 7.34835 13.3548C8.05161 14.058 9.00544 14.4531 10 14.4531C10.9946 14.4531 11.9484 14.058 12.6517 13.3548C13.3549 12.6515 13.75 11.6977 13.75 10.7031C13.75 9.70856 13.3549 8.75474 12.6517 8.05147ZM8.40901 9.11213C8.83097 8.69018 9.40326 8.45312 10 8.45312C10.5967 8.45312 11.169 8.69018 11.591 9.11213C12.0129 9.53409 12.25 10.1064 12.25 10.7031C12.25 11.2999 12.0129 11.8722 11.591 12.2941C11.169 12.7161 10.5967 12.9531 10 12.9531C9.40326 12.9531 8.83097 12.7161 8.40901 12.2941C7.98705 11.8722 7.75 11.2999 7.75 10.7031C7.75 10.1064 7.98705 9.53409 8.40901 9.11213Z" fill="#6B688D"/>
</svg>
