<svg width="20" height="21" viewBox="0 0 20 21" fill="none" xmlns="http://www.w3.org/2000/svg">
<g clip-path="url(#clip0_990_135)">
<path d="M18.7833 6.05304C18.6843 5.65755 18.4827 5.29519 18.1989 5.00255C17.915 4.70991 17.559 4.49736 17.1667 4.38638C15.7333 4.03638 10 4.03638 10 4.03638C10 4.03638 4.26667 4.03638 2.83333 4.41971C2.44104 4.5307 2.08498 4.74324 1.80112 5.03588C1.51726 5.32852 1.31566 5.69089 1.21666 6.08638C0.954344 7.54101 0.826028 9.01663 0.833332 10.4947C0.823981 11.9839 0.952305 13.4708 1.21666 14.9364C1.3258 15.3196 1.53192 15.6682 1.81512 15.9484C2.09832 16.2287 2.44902 16.4312 2.83333 16.5364C4.26667 16.9197 10 16.9197 10 16.9197C10 16.9197 15.7333 16.9197 17.1667 16.5364C17.559 16.4254 17.915 16.2128 18.1989 15.9202C18.4827 15.6276 18.6843 15.2652 18.7833 14.8697C19.0436 13.426 19.1719 11.9617 19.1667 10.4947C19.176 9.00551 19.0477 7.51863 18.7833 6.05304V6.05304Z" stroke="#6B688D" stroke-width="2" stroke-linecap="round" stroke-linejoin="round"/>
<path d="M8.125 13.2198L12.9167 10.4948L8.125 7.76978V13.2198Z" stroke="#6B688D" stroke-width="2" stroke-linecap="round" stroke-linejoin="round"/>
</g>
<defs>
<clipPath id="clip0_990_135">
<rect width="20" height="20" fill="white" transform="translate(0 0.703125)"/>
</clipPath>
</defs>
</svg>
