<svg width="90" height="92" viewBox="0 0 90 92" fill="none" xmlns="http://www.w3.org/2000/svg">
<path d="M41.561 62.1471C36.8038 49.555 31.3581 35.3647 41.2284 23.0532C38.1429 23.6131 35.2899 24.6675 32.7905 26.1061C26.9441 29.4544 22.4676 35.2146 19.4398 42.6517C15.4492 52.3544 15.1807 63.1856 18.4219 72.9213C20.4336 79.0055 23.8372 84.5726 28.6441 88.0083C32.424 90.7309 37.0269 92.1277 42.5319 91.4638C45.4442 91.1041 46.8631 89.9422 47.3326 88.2321C48.4195 84.057 46.5736 76.9879 44.2358 69.5747C43.531 67.3068 42.5761 64.7744 41.561 62.1471ZM45.8099 37.3449C45.0123 44.2085 47.8253 51.5959 50.458 58.3988C51.4903 61.096 52.4623 63.6984 53.2961 66.3409C55.9345 74.8281 58.0463 83.1313 56.6704 89.601C59.2379 88.7421 61.754 87.6733 64.1494 86.4149C68.2919 84.1239 72.1156 81.2887 75.3958 77.8996C83.6093 69.5542 88.7951 58.0802 89.0147 45.5398C89.2342 32.9994 84.4402 21.7669 76.5651 13.6782C68.664 5.63455 57.6387 0.709854 45.4037 0.970099C33.0824 1.18051 21.9018 6.49198 13.6884 14.8373C5.5181 23.2076 0.332217 34.6816 0.0695254 47.1971C-0.112194 57.7782 3.29332 67.4286 9.08692 75.036C7.59996 70.3353 6.84772 65.4585 6.75219 60.5406C6.59149 53.2438 7.91689 45.9645 10.7362 39.1875C14.5968 29.7099 20.5105 22.258 28.2941 17.7469C37.1156 12.6342 49.3345 11.7043 58.4956 15.3726C70.1866 20.1412 77.8394 32.0038 77.6179 45.7437C77.5324 50.377 76.5661 54.7418 74.9093 58.708C73.1484 62.8543 70.6279 66.622 67.4776 69.7859C73.2936 63.8986 75.3253 52.7047 73.7777 42.9262C73.0083 37.9794 70.0965 32.7564 66.3873 29.114C58.1752 21.0109 47.1433 25.2675 45.8099 37.3449Z" fill="white"/>
</svg>
